<?xml version="1.0" standalone="no"?>
<!DOCTYPE svg PUBLIC "-//W3C//DTD SVG 1.1//EN" "http://www.w3.org/Graphics/SVG/1.1/DTD/svg11.dtd" >
<svg xmlns="http://www.w3.org/2000/svg" xmlns:xlink="http://www.w3.org/1999/xlink" version="1.1">
<metadata>
Created by FontForge 20170731 at Fri Nov 25 21:51:57 2022
 By Aleksey,,,
</metadata>
<defs>
<font id="MotherDemoRegular" horiz-adv-x="1163" >
  <font-face 
    font-family="Mother Demo"
    font-weight="400"
    font-stretch="normal"
    units-per-em="2048"
    panose-1="0 0 0 0 0 0 0 0 0 0"
    ascent="1638"
    descent="-410"
    x-height="1002"
    cap-height="1434"
    bbox="-348 -504 1898 1510.78"
    underline-thickness="102"
    underline-position="-307"
    unicode-range="U+000A-00AD"
  />
<missing-glyph horiz-adv-x="1079" 
d="M102 1434h875v-1434h-875v1434zM160 1393l379 -633l381 633h-760zM514 717l-369 614v-1231zM541 674l-379 -631h758zM565 717l371 -621v1239z" />
    <glyph glyph-name=".notdef" horiz-adv-x="1079" 
d="M102 1434h875v-1434h-875v1434zM160 1393l379 -633l381 633h-760zM514 717l-369 614v-1231zM541 674l-379 -631h758zM565 717l371 -621v1239z" />
    <glyph glyph-name=".null" horiz-adv-x="0" 
 />
    <glyph glyph-name=".null" horiz-adv-x="0" 
 />
    <glyph glyph-name="nonmarkingreturn" horiz-adv-x="682" 
 />
    <glyph glyph-name="LF" unicode="&#xa;" horiz-adv-x="0" 
 />
    <glyph glyph-name="controlCR" unicode="&#xd;" horiz-adv-x="0" 
 />
    <glyph glyph-name="space" unicode=" " horiz-adv-x="727" 
 />
    <glyph glyph-name="zero" unicode="0" horiz-adv-x="1619" 
d="M809 1453q145 0 278 -58.5t228.5 -157t152.5 -234.5t57 -286t-57 -286t-152.5 -234.5t-228.5 -157t-278 -58.5q-146 0 -278.5 58.5t-228.5 157t-153 234.5t-57 286t57 286t153 234.5t228.5 157t278.5 58.5zM320 717q0 -192 65.5 -355t178 -257.5t245.5 -94.5
q132 0 244.5 94.5t178 257.5t65.5 355t-65.5 355t-178 257.5t-244.5 94.5q-133 0 -245.5 -94.5t-178 -257.5t-65.5 -355z" />
    <glyph glyph-name="one" unicode="1" horiz-adv-x="591" 
d="M548 29q14 0 14 -14q0 -15 -14 -15h-127h-199h-128q-14 0 -14 15q0 14 14 14h50q25 0 43.5 18t19.5 44v1222l-107 -44q-4 -2 -6 -2q-10 0 -13 9q-6 13 8 19l326 137q2 1 7 1h1q4 0 5 -1l1 -1l1 -1l3 -3q0 -1 0.5 -1t0.5 -1q1 -2 1 -6v-1327q0 -26 18.5 -44.5t44.5 -18.5
h50z" />
    <glyph glyph-name="three" unicode="3" horiz-adv-x="1218" 
d="M1109 1068q0 -123 -74.5 -220.5t-190.5 -130.5q116 -33 190.5 -130.5t74.5 -220.5q0 -152 -107.5 -259t-258.5 -107h-137h-15h-20h-61h-1h-23q-161 0 -274.5 116.5t-113.5 281.5q0 6 4.5 10.5t10.5 4.5q14 0 14 -15q0 -153 105 -261t254 -108h85h62h110q56 0 97 100
t41 237t-41 236.5t-97 99.5h-120q-26 0 -44.5 -18.5t-18.5 -44.5v-49q0 -6 -4.5 -10.5t-10.5 -4.5q-14 0 -14 15v254q0 15 14 15q6 0 10.5 -4.5t4.5 -10.5v-50q0 -26 18 -44.5t44 -18.5h121q56 0 97 100t41 237t-41 237t-97 100h-109l-1 -1l-105 1h-42q-84 0 -158 -38
q-65 -37 -94 -76t-22 -66q8 -29 47 -29q67 0 114 -47t47 -114t-47 -113.5t-114 -46.5t-114 46.5t-47 113.5q0 115 58.5 211.5t158.5 146.5q82 41 171 41h257q151 0 258.5 -107t107.5 -259z" />
    <glyph glyph-name="four" unicode="4" horiz-adv-x="1394" 
d="M1237 1341v-1248v-1q0 -26 18.5 -44.5t44.5 -18.5h50q14 0 14 -14q0 -15 -14 -15h-127h-1h-199h-127q-14 0 -14 15q0 14 14 14h50q26 0 44.5 18.5t18.5 44.5v355h-656h-199q-6 0 -10.5 4.5t-4.5 10.5v879q0 26 -18.5 45t-44.5 19h-49q-15 0 -15 14q0 6 4.5 10.5t10.5 4.5
h127h199h127q6 0 10.5 -4.5t4.5 -10.5q0 -14 -15 -14h-49q-26 0 -44.5 -19t-18.5 -45h-1v-865h642v866q0 26 -18.5 44.5t-44.5 18.5h-50q-14 0 -14 14q0 15 14 15h127h1h198h128q14 0 14 -15q0 -14 -14 -14h-50q-26 0 -44.5 -19t-18.5 -45z" />
    <glyph glyph-name="six" unicode="6" horiz-adv-x="1239" 
d="M970 1196q40 0 48 28q7 26 -22 65.5t-93 76.5l-1 1q-74 37 -159 37h-104l-152 1q-56 0 -97 -100t-41 -237v-364q66 27 138 27h109h1h169q152 0 258.5 -106.5t106.5 -258.5t-107 -259t-258 -107h-279q-151 0 -258.5 107t-107.5 259v702q0 152 107.5 259t258.5 107l168 -1
h88q92 0 172 -40v0l1 -1l1 -1q99 -51 156.5 -146.5t57.5 -209.5q0 -67 -47 -114t-114 -47t-114 47t-47 114t47 114t114 47zM486 702q-71 0 -137 -29v-307q0 -137 41 -237t97 -100h279q56 0 96.5 99.5t40.5 237.5q0 137 -40.5 236.5t-96.5 99.5h-110h-1h-168h-1z" />
    <glyph glyph-name="seven" unicode="7" horiz-adv-x="1208" 
d="M1166 1434q8 0 13 -8t0 -14l-836 -1405q-5 -7 -13 -7h-232q-7 0 -12 8t0 14l823 1382h-583q-88 0 -150.5 -62t-62.5 -151v-145q0 -6 -4.5 -10.5t-10.5 -4.5q-14 0 -14 15v373q0 15 14 15h1068z" />
    <glyph glyph-name="nine" unicode="9" horiz-adv-x="1239" 
d="M751 1434q151 0 258.5 -107t107.5 -259v-702q0 -152 -107.5 -259t-258.5 -107h-169h-88q-89 0 -171 41v0l-1 1h-1q-99 51 -157 146.5t-58 209.5q0 67 47 114t114 47t114 -47t47 -114t-47 -113.5t-114 -46.5q-39 0 -47 -29q-7 -26 22 -65t93 -76l1 -1q76 -38 158 -38h105
h152q56 0 97 100t41 237v364q-68 -28 -138 -28h-1h-109h-169q-152 0 -259 107t-107 259t107 259t259 107h279zM752 731q69 0 137 30v307q0 137 -41 237t-97 100h-279q-56 0 -97 -100t-41 -237t41 -237t97 -100h110h169h1z" />
    <glyph glyph-name="A" unicode="A" horiz-adv-x="1378" 
d="M27 0q-6 0 -10.5 4.5t-4.5 10.5q0 14 15 14h49q28 0 56 20t38 48l398 1047l107 280q3 9 13 9q11 0 14 -9l178 -468l326 -859q10 -28 38 -48t56 -20h49q15 0 15 -14q0 -6 -4.5 -10.5t-10.5 -4.5h-127h-212h-1h-127q-14 0 -14 15q0 14 14 14h50q21 0 33 15q10 16 1 43
l-101 268q-8 19 -26.5 33t-37.5 14h-484l-120 -315q-9 -27 1 -43q12 -15 34 -15h49q15 0 15 -14q0 -6 -4.5 -10.5t-10.5 -4.5h-254zM582 1098l-254 -667h473q14 0 20 8q7 10 1 28z" />
    <glyph glyph-name="A" unicode="&#xc5;" horiz-adv-x="1378" 
d="M27 0q-6 0 -10.5 4.5t-4.5 10.5q0 14 15 14h49q28 0 56 20t38 48l398 1047l107 280q3 9 13 9q11 0 14 -9l178 -468l326 -859q10 -28 38 -48t56 -20h49q15 0 15 -14q0 -6 -4.5 -10.5t-10.5 -4.5h-127h-212h-1h-127q-14 0 -14 15q0 14 14 14h50q21 0 33 15q10 16 1 43
l-101 268q-8 19 -26.5 33t-37.5 14h-484l-120 -315q-9 -27 1 -43q12 -15 34 -15h49q15 0 15 -14q0 -6 -4.5 -10.5t-10.5 -4.5h-254zM582 1098l-254 -667h473q14 0 20 8q7 10 1 28z" />
    <glyph glyph-name="A" unicode="&#xc4;" horiz-adv-x="1378" 
d="M27 0q-6 0 -10.5 4.5t-4.5 10.5q0 14 15 14h49q28 0 56 20t38 48l398 1047l107 280q3 9 13 9q11 0 14 -9l178 -468l326 -859q10 -28 38 -48t56 -20h49q15 0 15 -14q0 -6 -4.5 -10.5t-10.5 -4.5h-127h-212h-1h-127q-14 0 -14 15q0 14 14 14h50q21 0 33 15q10 16 1 43
l-101 268q-8 19 -26.5 33t-37.5 14h-484l-120 -315q-9 -27 1 -43q12 -15 34 -15h49q15 0 15 -14q0 -6 -4.5 -10.5t-10.5 -4.5h-254zM582 1098l-254 -667h473q14 0 20 8q7 10 1 28z" />
    <glyph glyph-name="A" unicode="&#xc3;" horiz-adv-x="1378" 
d="M27 0q-6 0 -10.5 4.5t-4.5 10.5q0 14 15 14h49q28 0 56 20t38 48l398 1047l107 280q3 9 13 9q11 0 14 -9l178 -468l326 -859q10 -28 38 -48t56 -20h49q15 0 15 -14q0 -6 -4.5 -10.5t-10.5 -4.5h-127h-212h-1h-127q-14 0 -14 15q0 14 14 14h50q21 0 33 15q10 16 1 43
l-101 268q-8 19 -26.5 33t-37.5 14h-484l-120 -315q-9 -27 1 -43q12 -15 34 -15h49q15 0 15 -14q0 -6 -4.5 -10.5t-10.5 -4.5h-254zM582 1098l-254 -667h473q14 0 20 8q7 10 1 28z" />
    <glyph glyph-name="A" unicode="&#xc2;" horiz-adv-x="1378" 
d="M27 0q-6 0 -10.5 4.5t-4.5 10.5q0 14 15 14h49q28 0 56 20t38 48l398 1047l107 280q3 9 13 9q11 0 14 -9l178 -468l326 -859q10 -28 38 -48t56 -20h49q15 0 15 -14q0 -6 -4.5 -10.5t-10.5 -4.5h-127h-212h-1h-127q-14 0 -14 15q0 14 14 14h50q21 0 33 15q10 16 1 43
l-101 268q-8 19 -26.5 33t-37.5 14h-484l-120 -315q-9 -27 1 -43q12 -15 34 -15h49q15 0 15 -14q0 -6 -4.5 -10.5t-10.5 -4.5h-254zM582 1098l-254 -667h473q14 0 20 8q7 10 1 28z" />
    <glyph glyph-name="A" unicode="&#xc1;" horiz-adv-x="1378" 
d="M27 0q-6 0 -10.5 4.5t-4.5 10.5q0 14 15 14h49q28 0 56 20t38 48l398 1047l107 280q3 9 13 9q11 0 14 -9l178 -468l326 -859q10 -28 38 -48t56 -20h49q15 0 15 -14q0 -6 -4.5 -10.5t-10.5 -4.5h-127h-212h-1h-127q-14 0 -14 15q0 14 14 14h50q21 0 33 15q10 16 1 43
l-101 268q-8 19 -26.5 33t-37.5 14h-484l-120 -315q-9 -27 1 -43q12 -15 34 -15h49q15 0 15 -14q0 -6 -4.5 -10.5t-10.5 -4.5h-254zM582 1098l-254 -667h473q14 0 20 8q7 10 1 28z" />
    <glyph glyph-name="A" unicode="&#xc0;" horiz-adv-x="1378" 
d="M27 0q-6 0 -10.5 4.5t-4.5 10.5q0 14 15 14h49q28 0 56 20t38 48l398 1047l107 280q3 9 13 9q11 0 14 -9l178 -468l326 -859q10 -28 38 -48t56 -20h49q15 0 15 -14q0 -6 -4.5 -10.5t-10.5 -4.5h-127h-212h-1h-127q-14 0 -14 15q0 14 14 14h50q21 0 33 15q10 16 1 43
l-101 268q-8 19 -26.5 33t-37.5 14h-484l-120 -315q-9 -27 1 -43q12 -15 34 -15h49q15 0 15 -14q0 -6 -4.5 -10.5t-10.5 -4.5h-254zM582 1098l-254 -667h473q14 0 20 8q7 10 1 28z" />
    <glyph glyph-name="B" unicode="B" 
d="M140 617q0 32 15.5 59t42.5 41q-58 33 -58 99v525h-1q0 26 -18.5 44.5t-44.5 18.5h-49q-6 0 -10.5 4.5t-4.5 10.5q0 14 15 14h127h100h530q152 0 259 -107t107 -258q0 -123 -74.5 -220.5t-190.5 -130.5q116 -33 190.5 -130.5t74.5 -220.5q0 -152 -107 -259t-259 -107
h-528h-3h-99h-127q-6 0 -10.5 4.5t-4.5 10.5q0 14 15 14h49q26 0 44.5 18.5t18.5 44.5l1 1v524zM368 114q0 -49 -39 -85h455q56 0 97 100t41 237q0 135 -39.5 233.5t-94.5 102.5h-2v0h-377q-17 0 -29 -12t-12 -29v-547zM784 1404h-455q39 -34 39 -84v-547q0 -17 12 -29.5
t29 -12.5l375 1h3q55 3 95 102.5t40 233.5q0 137 -41 236.5t-97 99.5z" />
    <glyph glyph-name="C" unicode="C" horiz-adv-x="1296" 
d="M729 -19q-146 0 -278.5 58.5t-228.5 157t-153 234.5t-57 286t57 286t153 234.5t228.5 157t278.5 58.5q64 0 127 -12h2q2 -1 7.5 -2t8.5 -1q1 0 3.5 -1t4.5 -1t5 -1t5 -2q10 -2 14 -3q14 -4 20 -6v0q180 -53 310 -186v-1q47 -47 47 -113.5t-47 -113.5t-114 -47t-114 47
t-47 114t47 114q39 39 31 74q-12 50 -121 84l-4 1q-2 1 -7.5 3t-8.5 2q-8 2 -13 3v0q-7 2 -17 4q-69 15 -139 15q-99 0 -189.5 -56t-156 -150.5t-104.5 -225.5t-39 -275t39 -275t104.5 -225.5t156 -150.5t189.5 -56q138 0 263 53.5t223 153.5q10 10 20 0q11 -11 1 -21
q-101 -104 -232 -159.5t-275 -55.5z" />
    <glyph glyph-name="C" unicode="&#xc7;" horiz-adv-x="1296" 
d="M729 -19q-146 0 -278.5 58.5t-228.5 157t-153 234.5t-57 286t57 286t153 234.5t228.5 157t278.5 58.5q64 0 127 -12h2q2 -1 7.5 -2t8.5 -1q1 0 3.5 -1t4.5 -1t5 -1t5 -2q10 -2 14 -3q14 -4 20 -6v0q180 -53 310 -186v-1q47 -47 47 -113.5t-47 -113.5t-114 -47t-114 47
t-47 114t47 114q39 39 31 74q-12 50 -121 84l-4 1q-2 1 -7.5 3t-8.5 2q-8 2 -13 3v0q-7 2 -17 4q-69 15 -139 15q-99 0 -189.5 -56t-156 -150.5t-104.5 -225.5t-39 -275t39 -275t104.5 -225.5t156 -150.5t189.5 -56q138 0 263 53.5t223 153.5q10 10 20 0q11 -11 1 -21
q-101 -104 -232 -159.5t-275 -55.5z" />
    <glyph glyph-name="D" unicode="D" horiz-adv-x="1368" 
d="M139 92l1 1v1248h-1q0 26 -18.5 44.5t-44.5 18.5h-49q-6 0 -10.5 4.5t-4.5 10.5t4.5 10.5t10.5 4.5h127v-1h100h384q194 0 359 -96t261 -261t96 -359q0 -146 -57 -278.5t-152.5 -228.5t-228.5 -153t-278 -57h-382h-3h-99h-127q-6 0 -10.5 4.5t-4.5 10.5q0 14 15 14h49
q26 0 44.5 18.5t18.5 44.5zM638 1404h-309q39 -34 39 -85v-1205q0 -49 -39 -85h309q132 0 244.5 92.5t178 251t65.5 344.5t-65.5 344.5t-178 250.5t-244.5 92z" />
    <glyph glyph-name="E" unicode="E" 
d="M140 617q0 32 15.5 59t42.5 41q-58 33 -58 99v525q0 26 -19 45t-45 19h-49q-15 0 -15 14q0 6 4.5 10.5t10.5 4.5h127h981q6 0 10.5 -4.5t4.5 -10.5v-373q0 -6 -4.5 -10.5t-10.5 -4.5q-14 0 -14 15v145q0 89 -62.5 151t-150.5 62h-579q39 -34 39 -84v-547q0 -17 12 -29.5
t29 -12.5h211q26 0 44.5 18.5t18.5 44.5v50q0 14 14 14q15 0 15 -14v-254q0 -6 -4.5 -10.5t-10.5 -4.5q-14 0 -14 15v49q0 26 -18.5 44.5t-44.5 18.5h-211q-17 0 -29 -12t-12 -29v-547q0 -49 -39 -85h579q88 0 150.5 62.5t62.5 150.5v146q0 14 14 14q15 0 15 -14v-373
q0 -6 -4.5 -10.5t-10.5 -4.5h-879h-3h-99h-127q-6 0 -10.5 4.5t-4.5 10.5q0 14 15 14h49q26 0 44.5 18.5t18.5 44.5l1 1v524z" />
    <glyph glyph-name="E" unicode="&#xcb;" 
d="M140 617q0 32 15.5 59t42.5 41q-58 33 -58 99v525q0 26 -19 45t-45 19h-49q-15 0 -15 14q0 6 4.5 10.5t10.5 4.5h127h981q6 0 10.5 -4.5t4.5 -10.5v-373q0 -6 -4.5 -10.5t-10.5 -4.5q-14 0 -14 15v145q0 89 -62.5 151t-150.5 62h-579q39 -34 39 -84v-547q0 -17 12 -29.5
t29 -12.5h211q26 0 44.5 18.5t18.5 44.5v50q0 14 14 14q15 0 15 -14v-254q0 -6 -4.5 -10.5t-10.5 -4.5q-14 0 -14 15v49q0 26 -18.5 44.5t-44.5 18.5h-211q-17 0 -29 -12t-12 -29v-547q0 -49 -39 -85h579q88 0 150.5 62.5t62.5 150.5v146q0 14 14 14q15 0 15 -14v-373
q0 -6 -4.5 -10.5t-10.5 -4.5h-879h-3h-99h-127q-6 0 -10.5 4.5t-4.5 10.5q0 14 15 14h49q26 0 44.5 18.5t18.5 44.5l1 1v524z" />
    <glyph glyph-name="E" unicode="&#xca;" 
d="M140 617q0 32 15.5 59t42.5 41q-58 33 -58 99v525q0 26 -19 45t-45 19h-49q-15 0 -15 14q0 6 4.5 10.5t10.5 4.5h127h981q6 0 10.5 -4.5t4.5 -10.5v-373q0 -6 -4.5 -10.5t-10.5 -4.5q-14 0 -14 15v145q0 89 -62.5 151t-150.5 62h-579q39 -34 39 -84v-547q0 -17 12 -29.5
t29 -12.5h211q26 0 44.5 18.5t18.5 44.5v50q0 14 14 14q15 0 15 -14v-254q0 -6 -4.5 -10.5t-10.5 -4.5q-14 0 -14 15v49q0 26 -18.5 44.5t-44.5 18.5h-211q-17 0 -29 -12t-12 -29v-547q0 -49 -39 -85h579q88 0 150.5 62.5t62.5 150.5v146q0 14 14 14q15 0 15 -14v-373
q0 -6 -4.5 -10.5t-10.5 -4.5h-879h-3h-99h-127q-6 0 -10.5 4.5t-4.5 10.5q0 14 15 14h49q26 0 44.5 18.5t18.5 44.5l1 1v524z" />
    <glyph glyph-name="E" unicode="&#xc9;" 
d="M140 617q0 32 15.5 59t42.5 41q-58 33 -58 99v525q0 26 -19 45t-45 19h-49q-15 0 -15 14q0 6 4.5 10.5t10.5 4.5h127h981q6 0 10.5 -4.5t4.5 -10.5v-373q0 -6 -4.5 -10.5t-10.5 -4.5q-14 0 -14 15v145q0 89 -62.5 151t-150.5 62h-579q39 -34 39 -84v-547q0 -17 12 -29.5
t29 -12.5h211q26 0 44.5 18.5t18.5 44.5v50q0 14 14 14q15 0 15 -14v-254q0 -6 -4.5 -10.5t-10.5 -4.5q-14 0 -14 15v49q0 26 -18.5 44.5t-44.5 18.5h-211q-17 0 -29 -12t-12 -29v-547q0 -49 -39 -85h579q88 0 150.5 62.5t62.5 150.5v146q0 14 14 14q15 0 15 -14v-373
q0 -6 -4.5 -10.5t-10.5 -4.5h-879h-3h-99h-127q-6 0 -10.5 4.5t-4.5 10.5q0 14 15 14h49q26 0 44.5 18.5t18.5 44.5l1 1v524z" />
    <glyph glyph-name="E" unicode="&#xc8;" 
d="M140 617q0 32 15.5 59t42.5 41q-58 33 -58 99v525q0 26 -19 45t-45 19h-49q-15 0 -15 14q0 6 4.5 10.5t10.5 4.5h127h981q6 0 10.5 -4.5t4.5 -10.5v-373q0 -6 -4.5 -10.5t-10.5 -4.5q-14 0 -14 15v145q0 89 -62.5 151t-150.5 62h-579q39 -34 39 -84v-547q0 -17 12 -29.5
t29 -12.5h211q26 0 44.5 18.5t18.5 44.5v50q0 14 14 14q15 0 15 -14v-254q0 -6 -4.5 -10.5t-10.5 -4.5q-14 0 -14 15v49q0 26 -18.5 44.5t-44.5 18.5h-211q-17 0 -29 -12t-12 -29v-547q0 -49 -39 -85h579q88 0 150.5 62.5t62.5 150.5v146q0 14 14 14q15 0 15 -14v-373
q0 -6 -4.5 -10.5t-10.5 -4.5h-879h-3h-99h-127q-6 0 -10.5 4.5t-4.5 10.5q0 14 15 14h49q26 0 44.5 18.5t18.5 44.5l1 1v524z" />
    <glyph glyph-name="F" unicode="F" 
d="M140 617q0 32 15.5 59t42.5 41q-58 33 -58 99v525q0 26 -19 45t-45 19h-49q-15 0 -15 14q0 6 4.5 10.5t10.5 4.5h127h981q6 0 10.5 -4.5t4.5 -10.5v-373q0 -6 -4.5 -10.5t-10.5 -4.5q-14 0 -14 15v145q0 89 -62.5 151t-150.5 62h-579q39 -34 39 -84v-547q0 -17 12 -29.5
t29 -12.5h211q26 0 44.5 18.5t18.5 44.5v50q0 14 14 14q15 0 15 -14v-254q0 -6 -4.5 -10.5t-10.5 -4.5q-14 0 -14 15v49q0 26 -18.5 44.5t-44.5 18.5h-211q-17 0 -29 -12t-12 -29v-569q0 -26 18.5 -44.5t44.5 -18.5h49q15 0 15 -14q0 -6 -4.5 -10.5t-10.5 -4.5h-127h-1h-99
h-99h-127q-6 0 -10.5 4.5t-4.5 10.5q0 14 15 14h49q26 0 44.5 18.5t18.5 44.5l1 1v524z" />
    <glyph glyph-name="G" unicode="G" horiz-adv-x="1296" 
d="M729 -19q-146 0 -278.5 58.5t-228.5 157t-153 234.5t-57 286t57 286t153 234.5t228.5 157t278.5 58.5q64 0 127 -12h2q2 -1 7.5 -2t8.5 -1q8 -1 19 -5q2 -1 6.5 -2t6.5 -1q4 -1 11 -3t11 -3q177 -52 308 -186v0v-1q47 -47 47 -113q0 -67 -47 -114t-114 -47t-114 47
t-47 114t47 114q39 39 31 74q-12 51 -120 84l-4 1q-9 4 -16 5l-12 3h-1q-5 2 -19 4q-69 15 -138 15q-99 0 -189.5 -56t-156 -150.5t-104.5 -225.5t-39 -275t39 -275t104.5 -225.5t156 -150.5t189.5 -56q149 0 283 63v566q0 26 -18.5 45t-44.5 19h-50q-14 0 -14 14
q0 15 14 15h127h199q6 0 10.5 -4.5t4.5 -10.5v-510v-1v-1l-1 -1v-3q-1 -2 -3 -4v-1q-88 -91 -203 -146q-143 -69 -304 -69z" />
    <glyph glyph-name="H" unicode="H" horiz-adv-x="1378" 
d="M139 617q0 66 59 100q-58 33 -58 100v524q0 26 -19 45t-45 19h-49q-15 0 -15 14q0 6 4.5 10.5t10.5 4.5h127h199h127q6 0 10.5 -4.5t4.5 -10.5q0 -14 -15 -14h-49q-26 0 -44.5 -19t-18.5 -45v-568q0 -17 12 -29.5t29 -12.5h558q17 0 29.5 12.5t12.5 29.5v568
q0 26 -18.5 45t-44.5 19h-50q-14 0 -14 14q0 15 14 15h127h1h198h128q14 0 14 -15q0 -14 -14 -14h-50q-26 0 -44.5 -19t-18.5 -45v-524q0 -66 -59 -100q59 -34 59 -100v-524v-1q0 -26 18.5 -44.5t44.5 -18.5h50q14 0 14 -14q0 -15 -14 -15h-127h-1h-199h-127q-14 0 -14 15
q0 14 14 14h50q26 0 44.5 18.5t18.5 44.5v569q0 17 -12.5 29t-29.5 12h-558q-17 0 -29 -12t-12 -29v-1v-567v-1q0 -26 18.5 -44.5t44.5 -18.5h49q15 0 15 -14q0 -6 -4.5 -10.5t-10.5 -4.5h-126h-1h-199h-1h-126q-6 0 -10.5 4.5t-4.5 10.5q0 14 15 14h49q26 0 44.5 18.5
t18.5 44.5v525z" />
    <glyph glyph-name="I" unicode="I" horiz-adv-x="507" 
d="M76 29q26 0 44.5 18.5t18.5 44.5v1249q0 26 -18.5 45t-44.5 19h-49q-15 0 -15 14q0 6 4.5 10.5t10.5 4.5h453q6 0 10.5 -4.5t4.5 -10.5q0 -14 -15 -14h-49q-26 0 -44.5 -19t-18.5 -45v-1249q0 -26 18.5 -44.5t44.5 -18.5h49q15 0 15 -14q0 -6 -4.5 -10.5t-10.5 -4.5h-126
h-1h-199h-1h-126q-6 0 -10.5 4.5t-4.5 10.5q0 14 15 14h49z" />
    <glyph glyph-name="I" unicode="&#xcf;" horiz-adv-x="507" 
d="M76 29q26 0 44.5 18.5t18.5 44.5v1249q0 26 -18.5 45t-44.5 19h-49q-15 0 -15 14q0 6 4.5 10.5t10.5 4.5h453q6 0 10.5 -4.5t4.5 -10.5q0 -14 -15 -14h-49q-26 0 -44.5 -19t-18.5 -45v-1249q0 -26 18.5 -44.5t44.5 -18.5h49q15 0 15 -14q0 -6 -4.5 -10.5t-10.5 -4.5h-126
h-1h-199h-1h-126q-6 0 -10.5 4.5t-4.5 10.5q0 14 15 14h49z" />
    <glyph glyph-name="I" unicode="&#xce;" horiz-adv-x="507" 
d="M76 29q26 0 44.5 18.5t18.5 44.5v1249q0 26 -18.5 45t-44.5 19h-49q-15 0 -15 14q0 6 4.5 10.5t10.5 4.5h453q6 0 10.5 -4.5t4.5 -10.5q0 -14 -15 -14h-49q-26 0 -44.5 -19t-18.5 -45v-1249q0 -26 18.5 -44.5t44.5 -18.5h49q15 0 15 -14q0 -6 -4.5 -10.5t-10.5 -4.5h-126
h-1h-199h-1h-126q-6 0 -10.5 4.5t-4.5 10.5q0 14 15 14h49z" />
    <glyph glyph-name="I" unicode="&#xcd;" horiz-adv-x="507" 
d="M76 29q26 0 44.5 18.5t18.5 44.5v1249q0 26 -18.5 45t-44.5 19h-49q-15 0 -15 14q0 6 4.5 10.5t10.5 4.5h453q6 0 10.5 -4.5t4.5 -10.5q0 -14 -15 -14h-49q-26 0 -44.5 -19t-18.5 -45v-1249q0 -26 18.5 -44.5t44.5 -18.5h49q15 0 15 -14q0 -6 -4.5 -10.5t-10.5 -4.5h-126
h-1h-199h-1h-126q-6 0 -10.5 4.5t-4.5 10.5q0 14 15 14h49z" />
    <glyph glyph-name="I" unicode="&#xcc;" horiz-adv-x="507" 
d="M76 29q26 0 44.5 18.5t18.5 44.5v1249q0 26 -18.5 45t-44.5 19h-49q-15 0 -15 14q0 6 4.5 10.5t10.5 4.5h453q6 0 10.5 -4.5t4.5 -10.5q0 -14 -15 -14h-49q-26 0 -44.5 -19t-18.5 -45v-1249q0 -26 18.5 -44.5t44.5 -18.5h49q15 0 15 -14q0 -6 -4.5 -10.5t-10.5 -4.5h-126
h-1h-199h-1h-126q-6 0 -10.5 4.5t-4.5 10.5q0 14 15 14h49z" />
    <glyph glyph-name="J" unicode="J" 
d="M266 68q-118 67 -186 184.5t-68 253.5q0 67 47 113.5t114 46.5t114 -46.5t47 -113.5t-47 -114t-114 -47q-62 0 -71 -30q-10 -37 45.5 -106t133.5 -116q1 0 4 -2t5 -3q1 -1 3.5 -2.5t3.5 -1.5q2 -1 4.5 -3t3.5 -2h1q6 -3 19 -9q93 -41 192 -41q75 0 139 64t101.5 174
t37.5 239v835q0 26 -18.5 45t-44.5 19h-50q-15 0 -15 14q0 6 4.5 10.5t10.5 4.5h127h199h127q6 0 10.5 -4.5t4.5 -10.5q0 -14 -15 -14h-49q-26 0 -44.5 -18.5t-18.5 -44.5v-836q0 -209 -148.5 -357.5t-357.5 -148.5q-105 0 -203 43v0q-18 8 -22 10v1v0q-1 0 -4 2t-5 3l-12 6
z" />
    <glyph glyph-name="K" unicode="K" horiz-adv-x="1376" 
d="M76 29q26 0 45 18.5t19 44.5v1249q0 26 -19 45t-45 19h-49q-15 0 -15 14q0 6 4.5 10.5t10.5 4.5h453q6 0 10.5 -4.5t4.5 -10.5q0 -14 -15 -14h-49q-26 0 -44.5 -19t-18.5 -45v-747l1 -9q5 -5 29 20l741 750q29 29 23 43q-4 7 -21 7h-52q-14 0 -14 15q0 14 14 14h52h81
h127q14 0 14 -15q0 -14 -14 -14h-50q-29 0 -72 -22t-72 -52l-437 -443l469 -788h1q17 -29 50 -50t61 -21h50q14 0 14 -14q0 -15 -14 -15h-127v0h-359q-6 0 -10.5 4.5t-4.5 10.5q0 14 15 14h49q20 0 27 12q8 16 -7 42l-379 637l-134 -135q-21 -21 -36 -51.5t-15 -51.5v-390
q0 -26 18.5 -44.5t44.5 -18.5h49q15 0 15 -14q0 -6 -4.5 -10.5t-10.5 -4.5h-126h-1h-199h-1h-126q-6 0 -10.5 4.5t-4.5 10.5q0 14 15 14h49z" />
    <glyph glyph-name="L" unicode="L" 
d="M139 92l1 1v1248h-1q0 26 -18.5 44.5t-44.5 18.5h-49q-6 0 -10.5 4.5t-4.5 10.5q0 14 15 14h127v1l198 -1h1h127q15 0 15 -14q0 -6 -4.5 -10.5t-10.5 -4.5h-49q-26 0 -44.5 -18.5t-18.5 -44.5v-1227q0 -51 -39 -85h579q88 0 150.5 62.5t62.5 150.5v146q0 14 14 14
q15 0 15 -14v-374q0 -14 -15 -14h-981h-127q-15 0 -15 14q0 6 4.5 10.5t10.5 4.5h49q26 0 44.5 18.5t18.5 44.5z" />
    <glyph glyph-name="M" unicode="M" horiz-adv-x="1579" 
d="M76 29q26 0 45 18.5t19 44.5v1285q-32 27 -64 27h-49q-6 0 -10.5 4.5t-4.5 10.5q0 14 15 14h127h213q10 0 13 -9l414 -1089l415 1089q3 10 13 10h327q14 0 14 -15q0 -14 -14 -14h-50q-26 0 -44.5 -19t-18.5 -45v-1249q0 -26 18.5 -44.5t44.5 -18.5h50q14 0 14 -14
q0 -15 -14 -15h-127h-1h-199h-127q-14 0 -14 15q0 14 14 14h50q26 0 44.5 18.5t18.5 44.5v1248l-400 -1051l-106 -280q-3 -9 -14 -9t-14 9l-357 940l-147 387l-1 1q-1 1 -1 2v-1247q0 -26 19 -44.5t45 -18.5h49q6 0 10.5 -4.5t4.5 -10.5q0 -14 -15 -14h-254q-15 0 -15 14
q0 6 4.5 10.5t10.5 4.5h49z" />
    <glyph glyph-name="N" unicode="N" horiz-adv-x="1265" 
d="M76 29q26 0 44.5 18.5t18.5 44.5v1290q-34 23 -63 23h-49q-15 0 -15 14q0 6 4.5 10.5t10.5 4.5h127h232q6 0 12 -8l697 -1170v1086q-1 26 -19.5 44t-43.5 18h-50q-14 0 -14 15q0 14 14 14h255q14 0 14 -14q0 -15 -14 -15h-50q-26 0 -44.5 -18.5t-18.5 -44.5v-1326
q0 -6 -4.5 -10.5t-10.5 -4.5h-119q-8 0 -13 7l-790 1327q-5 8 -19 24v-1266q0 -26 19 -44.5t45 -18.5h49q6 0 10.5 -4.5t4.5 -10.5q0 -14 -15 -14h-254q-15 0 -15 14q0 6 4.5 10.5t10.5 4.5h49z" />
    <glyph glyph-name="N" unicode="&#xd1;" horiz-adv-x="1265" 
d="M76 29q26 0 44.5 18.5t18.5 44.5v1290q-34 23 -63 23h-49q-15 0 -15 14q0 6 4.5 10.5t10.5 4.5h127h232q6 0 12 -8l697 -1170v1086q-1 26 -19.5 44t-43.5 18h-50q-14 0 -14 15q0 14 14 14h255q14 0 14 -14q0 -15 -14 -15h-50q-26 0 -44.5 -18.5t-18.5 -44.5v-1326
q0 -6 -4.5 -10.5t-10.5 -4.5h-119q-8 0 -13 7l-790 1327q-5 8 -19 24v-1266q0 -26 19 -44.5t45 -18.5h49q6 0 10.5 -4.5t4.5 -10.5q0 -14 -15 -14h-254q-15 0 -15 14q0 6 4.5 10.5t10.5 4.5h49z" />
    <glyph glyph-name="O" unicode="O" horiz-adv-x="1460" 
d="M729 -19q-146 0 -278.5 58.5t-228.5 157t-153 234.5t-57 286t57 286t153 234.5t228.5 157t278.5 58.5t278.5 -58.5t228.5 -157t153 -234.5t57 -286t-57 -286t-153 -234.5t-228.5 -157t-278.5 -58.5zM729 1424q-99 0 -189.5 -56t-156 -150.5t-104.5 -225.5t-39 -275
t39 -275t104.5 -225.5t156 -150.5t189.5 -56q132 0 244.5 94.5t178 257.5t65.5 355t-65.5 355t-178 257.5t-244.5 94.5z" />
    <glyph glyph-name="O" unicode="&#xd8;" horiz-adv-x="1460" 
d="M729 -19q-146 0 -278.5 58.5t-228.5 157t-153 234.5t-57 286t57 286t153 234.5t228.5 157t278.5 58.5t278.5 -58.5t228.5 -157t153 -234.5t57 -286t-57 -286t-153 -234.5t-228.5 -157t-278.5 -58.5zM729 1424q-99 0 -189.5 -56t-156 -150.5t-104.5 -225.5t-39 -275
t39 -275t104.5 -225.5t156 -150.5t189.5 -56q132 0 244.5 94.5t178 257.5t65.5 355t-65.5 355t-178 257.5t-244.5 94.5z" />
    <glyph glyph-name="O" unicode="&#xd6;" horiz-adv-x="1460" 
d="M729 -19q-146 0 -278.5 58.5t-228.5 157t-153 234.5t-57 286t57 286t153 234.5t228.5 157t278.5 58.5t278.5 -58.5t228.5 -157t153 -234.5t57 -286t-57 -286t-153 -234.5t-228.5 -157t-278.5 -58.5zM729 1424q-99 0 -189.5 -56t-156 -150.5t-104.5 -225.5t-39 -275
t39 -275t104.5 -225.5t156 -150.5t189.5 -56q132 0 244.5 94.5t178 257.5t65.5 355t-65.5 355t-178 257.5t-244.5 94.5z" />
    <glyph glyph-name="O" unicode="&#xd5;" horiz-adv-x="1460" 
d="M729 -19q-146 0 -278.5 58.5t-228.5 157t-153 234.5t-57 286t57 286t153 234.5t228.5 157t278.5 58.5t278.5 -58.5t228.5 -157t153 -234.5t57 -286t-57 -286t-153 -234.5t-228.5 -157t-278.5 -58.5zM729 1424q-99 0 -189.5 -56t-156 -150.5t-104.5 -225.5t-39 -275
t39 -275t104.5 -225.5t156 -150.5t189.5 -56q132 0 244.5 94.5t178 257.5t65.5 355t-65.5 355t-178 257.5t-244.5 94.5z" />
    <glyph glyph-name="O" unicode="&#xd4;" horiz-adv-x="1460" 
d="M729 -19q-146 0 -278.5 58.5t-228.5 157t-153 234.5t-57 286t57 286t153 234.5t228.5 157t278.5 58.5t278.5 -58.5t228.5 -157t153 -234.5t57 -286t-57 -286t-153 -234.5t-228.5 -157t-278.5 -58.5zM729 1424q-99 0 -189.5 -56t-156 -150.5t-104.5 -225.5t-39 -275
t39 -275t104.5 -225.5t156 -150.5t189.5 -56q132 0 244.5 94.5t178 257.5t65.5 355t-65.5 355t-178 257.5t-244.5 94.5z" />
    <glyph glyph-name="O" unicode="&#xd3;" horiz-adv-x="1460" 
d="M729 -19q-146 0 -278.5 58.5t-228.5 157t-153 234.5t-57 286t57 286t153 234.5t228.5 157t278.5 58.5t278.5 -58.5t228.5 -157t153 -234.5t57 -286t-57 -286t-153 -234.5t-228.5 -157t-278.5 -58.5zM729 1424q-99 0 -189.5 -56t-156 -150.5t-104.5 -225.5t-39 -275
t39 -275t104.5 -225.5t156 -150.5t189.5 -56q132 0 244.5 94.5t178 257.5t65.5 355t-65.5 355t-178 257.5t-244.5 94.5z" />
    <glyph glyph-name="O" unicode="&#xd2;" horiz-adv-x="1460" 
d="M729 -19q-146 0 -278.5 58.5t-228.5 157t-153 234.5t-57 286t57 286t153 234.5t228.5 157t278.5 58.5t278.5 -58.5t228.5 -157t153 -234.5t57 -286t-57 -286t-153 -234.5t-228.5 -157t-278.5 -58.5zM729 1424q-99 0 -189.5 -56t-156 -150.5t-104.5 -225.5t-39 -275
t39 -275t104.5 -225.5t156 -150.5t189.5 -56q132 0 244.5 94.5t178 257.5t65.5 355t-65.5 355t-178 257.5t-244.5 94.5z" />
    <glyph glyph-name="P" unicode="P" 
d="M139 617q0 66 59 100q-59 34 -59 100v525q0 26 -18.5 44.5t-44.5 18.5h-49q-15 0 -15 14q0 6 4.5 10.5t10.5 4.5h127h99h531q152 0 259 -107t107 -259t-107 -259t-259 -107h-375q-17 0 -29 -12t-12 -29l-1 -1v-567l1 -1q0 -26 18.5 -44.5t44.5 -18.5h49q15 0 15 -14
q0 -6 -4.5 -10.5t-10.5 -4.5h-126h-1h-199h-1h-126q-6 0 -10.5 4.5t-4.5 10.5q0 14 15 14h49q26 0 44.5 18.5t18.5 44.5v525zM784 1405h-455q38 -33 38 -85v-547h1q0 -17 12 -29.5t29 -12.5h375q56 0 97 100t41 237t-41 237t-97 100z" />
    <glyph glyph-name="Q" unicode="Q" horiz-adv-x="1460" 
d="M280 144q-125 103 -196.5 253t-71.5 320q0 150 57 286t153 234.5t228.5 157t278.5 58.5t278.5 -58.5t228.5 -157t153 -234.5t57 -286q0 -142 -50 -270t-140 -228q101 -99 107 -242v0v-1q0 -3 0.5 -7.5t0.5 -7.5q0 -120 -71 -216l-1 -1v-1q-50 -67 -124 -105.5t-158 -40.5
v0h-1h-9v0h-1q-66 0 -113 47t-47 114t47 114t113 47h1q68 0 114 -48t46 -114q0 -52 20 -59q27 -9 84 57q2 5 4 7l1 -1v1h1v1l-1 1q3 3 5 4q61 87 61 191q0 3 -0.5 8t-0.5 7v1q-4 63 -40.5 114t-92.5 75q-155 -140 -357 -174l-30 -33q-91 -102 -228 -102h-1q-122 1 -210 84.5
t-95 204.5zM729 1424q-99 0 -189.5 -56t-156 -150.5t-104.5 -225.5t-39 -275q0 -235 96 -421t247 -254q6 4 10 10l141 156q52 55 122 85.5t146 30.5q62 0 122 -22q93 184 93 415q0 192 -65.5 355t-178 257.5t-244.5 94.5zM942 101l-40 -45q74 41 134 111q-58 -21 -94 -66z
M472 -1q29 0 59 11q-115 34 -216 107q15 -51 59 -84.5t98 -33.5z" />
    <glyph glyph-name="R" unicode="R" horiz-adv-x="1261" 
d="M139 617q0 66 59 100q-59 34 -59 100v525q0 26 -18.5 44.5t-44.5 18.5h-49q-15 0 -15 14q0 6 4.5 10.5t10.5 4.5h127h99h531q152 0 259 -107t107 -259q0 -128 -79.5 -226.5t-200.5 -128.5q110 -37 180.5 -132t70.5 -215v-274q0 -26 18.5 -44.5t44.5 -18.5h49q15 0 15 -14
q0 -6 -4.5 -10.5t-10.5 -4.5h-49h-177q-47 0 -80.5 33.5t-33.5 80.5v252q0 136 -40 235t-95 101h-349q-17 0 -29 -12t-12 -29l-1 -1v-567l1 -1q0 -26 18.5 -44.5t44.5 -18.5h49q15 0 15 -14q0 -6 -4.5 -10.5t-10.5 -4.5h-126h-1h-199h-1h-126q-6 0 -10.5 4.5t-4.5 10.5
q0 14 15 14h49q26 0 44.5 18.5t18.5 44.5v525zM784 1405h-455q38 -33 38 -85v-547h1q0 -17 12 -29.5t29 -12.5h22l324 1q1 0 3 -0.5t3 -0.5h23q56 0 97 100t41 237t-41 237t-97 100z" />
    <glyph glyph-name="S" unicode="S" horiz-adv-x="1036" 
d="M862 1216q39 0 47 28q7 27 -22 66t-95 76q-74 38 -157 38h-235q-3 0 -8.5 -0.5t-8.5 -0.5h-1q-100 -8 -168.5 -83t-68.5 -178q0 -16 4 -44q14 -84 75 -145q42 -41 147 -78l274 -99q7 -3 22 -8.5t23 -7.5q47 -16 64.5 -22.5t52.5 -23.5t60 -36q73 -56 114.5 -141
t41.5 -178q0 -159 -106.5 -274.5t-261.5 -123.5h-20h-235q-161 0 -274.5 116.5t-113.5 281.5q0 6 4.5 10.5t10.5 4.5q14 0 14 -15q0 -153 105 -261t254 -108h235h18q100 7 168.5 83t68.5 179q0 30 -8 65q-20 83 -88 140q-39 32 -142 67q-5 2 -19 6.5t-21 7.5l-302 108
q-97 36 -143 71q-73 56 -114 140.5t-41 177.5q0 159 106.5 274t261.5 123h1q3 0 9.5 0.5t9.5 0.5h235q91 0 171 -41q100 -50 158.5 -146t58.5 -211q0 -67 -47 -114t-114 -47t-114 47t-47 114t47 114t114 47z" />
    <glyph glyph-name="T" unicode="T" horiz-adv-x="1124" 
d="M27 1031q-6 0 -10.5 4.5t-4.5 10.5v373v0q0 6 4.5 10.5t10.5 4.5h1068q6 0 10.5 -4.5t4.5 -10.5v-373q0 -6 -4.5 -10.5t-10.5 -4.5q-14 0 -14 15v145q0 89 -62.5 151.5t-150.5 62.5h-1h-192v-1313q0 -26 18.5 -44.5t44.5 -18.5h50q14 0 14 -14q0 -15 -14 -15h-127h-200
h-127q-14 0 -14 15q0 14 14 14h50q26 0 44.5 18.5t18.5 44.5v1313h-192h-1q-88 0 -150.5 -62.5t-62.5 -151.5v-145q0 -15 -14 -15z" />
    <glyph glyph-name="U" unicode="U" horiz-adv-x="1290" 
d="M27 1405q-15 0 -15 14q0 6 4.5 10.5t10.5 4.5h127h199h127q6 0 10.5 -4.5t4.5 -10.5q0 -14 -15 -14h-49q-26 0 -44.5 -19t-18.5 -45h-1v-835q0 -129 37 -239t101 -174t139 -64q197 0 337 140t140 337v836q0 26 -18.5 44.5t-44.5 18.5h-50q-14 0 -14 14q0 15 14 15h254
q6 0 10.5 -4.5t4.5 -10.5q0 -14 -15 -14h-49q-26 0 -44.5 -19t-18.5 -45v-835q0 -209 -148.5 -357.5t-357.5 -148.5q-137 0 -253 68t-184 184.5t-68 253.5v835q0 26 -18.5 45t-44.5 19h-49z" />
    <glyph glyph-name="U" unicode="&#xdc;" horiz-adv-x="1290" 
d="M27 1405q-15 0 -15 14q0 6 4.5 10.5t10.5 4.5h127h199h127q6 0 10.5 -4.5t4.5 -10.5q0 -14 -15 -14h-49q-26 0 -44.5 -19t-18.5 -45h-1v-835q0 -129 37 -239t101 -174t139 -64q197 0 337 140t140 337v836q0 26 -18.5 44.5t-44.5 18.5h-50q-14 0 -14 14q0 15 14 15h254
q6 0 10.5 -4.5t4.5 -10.5q0 -14 -15 -14h-49q-26 0 -44.5 -19t-18.5 -45v-835q0 -209 -148.5 -357.5t-357.5 -148.5q-137 0 -253 68t-184 184.5t-68 253.5v835q0 26 -18.5 45t-44.5 19h-49z" />
    <glyph glyph-name="U" unicode="&#xdb;" horiz-adv-x="1290" 
d="M27 1405q-15 0 -15 14q0 6 4.5 10.5t10.5 4.5h127h199h127q6 0 10.5 -4.5t4.5 -10.5q0 -14 -15 -14h-49q-26 0 -44.5 -19t-18.5 -45h-1v-835q0 -129 37 -239t101 -174t139 -64q197 0 337 140t140 337v836q0 26 -18.5 44.5t-44.5 18.5h-50q-14 0 -14 14q0 15 14 15h254
q6 0 10.5 -4.5t4.5 -10.5q0 -14 -15 -14h-49q-26 0 -44.5 -19t-18.5 -45v-835q0 -209 -148.5 -357.5t-357.5 -148.5q-137 0 -253 68t-184 184.5t-68 253.5v835q0 26 -18.5 45t-44.5 19h-49z" />
    <glyph glyph-name="U" unicode="&#xda;" horiz-adv-x="1290" 
d="M27 1405q-15 0 -15 14q0 6 4.5 10.5t10.5 4.5h127h199h127q6 0 10.5 -4.5t4.5 -10.5q0 -14 -15 -14h-49q-26 0 -44.5 -19t-18.5 -45h-1v-835q0 -129 37 -239t101 -174t139 -64q197 0 337 140t140 337v836q0 26 -18.5 44.5t-44.5 18.5h-50q-14 0 -14 14q0 15 14 15h254
q6 0 10.5 -4.5t4.5 -10.5q0 -14 -15 -14h-49q-26 0 -44.5 -19t-18.5 -45v-835q0 -209 -148.5 -357.5t-357.5 -148.5q-137 0 -253 68t-184 184.5t-68 253.5v835q0 26 -18.5 45t-44.5 19h-49z" />
    <glyph glyph-name="U" unicode="&#xd9;" horiz-adv-x="1290" 
d="M27 1405q-15 0 -15 14q0 6 4.5 10.5t10.5 4.5h127h199h127q6 0 10.5 -4.5t4.5 -10.5q0 -14 -15 -14h-49q-26 0 -44.5 -19t-18.5 -45h-1v-835q0 -129 37 -239t101 -174t139 -64q197 0 337 140t140 337v836q0 26 -18.5 44.5t-44.5 18.5h-50q-14 0 -14 14q0 15 14 15h254
q6 0 10.5 -4.5t4.5 -10.5q0 -14 -15 -14h-49q-26 0 -44.5 -19t-18.5 -45v-835q0 -209 -148.5 -357.5t-357.5 -148.5q-137 0 -253 68t-184 184.5t-68 253.5v835q0 26 -18.5 45t-44.5 19h-49z" />
    <glyph glyph-name="V" unicode="V" horiz-adv-x="1378" 
d="M27 1404q-6 0 -10.5 4.5t-4.5 10.5q0 14 15 14h127h1h211h1h127q15 0 15 -14q0 -6 -4.5 -10.5t-10.5 -4.5h-50q-24 0 -33 -14q-11 -17 -1 -44l384 -1011l385 1011q10 27 -1 44q-9 14 -33 14h-50q-14 0 -14 15q0 14 14 14h254q15 0 15 -14q0 -6 -4.5 -10.5t-10.5 -4.5h-49
q-28 0 -56 -20t-38 -48l-398 -1047l-107 -280q-3 -9 -13 -9q-11 0 -14 9l-322 848l-182 479q-10 28 -38 48t-56 20h-49z" />
    <glyph glyph-name="W" unicode="W" horiz-adv-x="1910" 
d="M170 1336q-10 28 -38 48t-56 20h-49q-6 0 -10.5 4.5t-4.5 10.5q0 14 15 14h127h1h211h1h127q15 0 15 -14q0 -6 -4.5 -10.5t-10.5 -4.5h-50q-22 0 -33 -14q-11 -17 -1 -44l384 -1011l146 382l-54 140l-182 479q-11 28 -38 48t-55 20h-50q-6 0 -10.5 4.5t-4.5 10.5
q0 14 15 14h127h1h211h1h127q15 0 15 -14q0 -6 -4.5 -10.5t-10.5 -4.5h-49q-23 0 -34 -14q-11 -17 -1 -44l118 -309l117 309q10 27 -1 44q-9 14 -33 14h-50q-14 0 -14 15q0 14 14 14h254q15 0 15 -14q0 -6 -4.5 -10.5t-10.5 -4.5h-49q-28 0 -56 -20t-38 -48l-129 -340
l252 -661l384 1011q10 27 -1 44q-9 14 -33 14h-50q-14 0 -14 15q0 14 14 14h255q14 0 14 -14q0 -15 -14 -15h-50q-28 0 -55 -20t-38 -48v0l-399 -1047l-106 -280q-3 -9 -14 -9q-10 0 -13 9l-254 667l-147 -387l-106 -280q-3 -9 -14 -9t-14 9l-230 607z" />
    <glyph glyph-name="X" unicode="X" horiz-adv-x="1376" 
d="M27 1405q-15 0 -15 14q0 6 4.5 10.5t10.5 4.5h127h232h127q14 0 14 -15q0 -14 -14 -14h-50q-19 0 -26 -12q-10 -16 7 -44l341 -573q9 -12 18 -12q13 0 22 17l338 568q17 28 8 44q-7 12 -27 12h-49q-15 0 -15 14q0 6 4.5 10.5t10.5 4.5h254q14 0 14 -15q0 -14 -14 -14h-50
q-28 0 -61 -21t-50 -50l-338 -568q-12 -19 -12 -48t11 -49l339 -569q17 -29 50 -50t61 -21h50q14 0 14 -14q0 -15 -14 -15h-486q-6 0 -10.5 4.5t-4.5 10.5q0 14 15 14h49q20 0 27 12q9 15 -7 43l-341 572q-8 13 -18 13q-14 0 -23 -17l-338 -568q-16 -28 -7 -43q7 -12 26 -12
h50q15 0 15 -14q0 -6 -4.5 -10.5t-10.5 -4.5h-254q-6 0 -10.5 4.5t-4.5 10.5q0 14 15 14h49q28 0 61.5 21t50.5 50v0l337 567h1q12 20 12 49.5t-12 49.5l-1 1l-337 567q-17 29 -50.5 50t-61.5 21h-49z" />
    <glyph glyph-name="Y" unicode="Y" horiz-adv-x="1378" 
d="M27 1404q-6 0 -10.5 4.5t-4.5 10.5q0 14 15 14h127h212h1h127q15 0 15 -14q0 -6 -4.5 -10.5t-10.5 -4.5h-50q-24 0 -33 -14q-11 -17 -1 -44l384 -1011l385 1011q10 27 -1 44q-11 14 -33 14h-50q-14 0 -14 15q0 14 14 14h254q15 0 15 -14q0 -6 -4.5 -10.5t-10.5 -4.5h-49
q-28 0 -56 -20t-38 -48l-398 -1047l-6 -15v-182q0 -26 18.5 -44.5t44.5 -18.5h50q14 0 14 -14q0 -15 -14 -15h-127h-199h-1h-127q-14 0 -14 15q0 14 14 14h50q26 0 44.5 18.5t18.5 44.5v181l-222 584l-182 479q-10 28 -38 48t-56 20h-49z" />
    <glyph glyph-name="Y" unicode="&#x178;" horiz-adv-x="1378" 
d="M27 1404q-6 0 -10.5 4.5t-4.5 10.5q0 14 15 14h127h212h1h127q15 0 15 -14q0 -6 -4.5 -10.5t-10.5 -4.5h-50q-24 0 -33 -14q-11 -17 -1 -44l384 -1011l385 1011q10 27 -1 44q-11 14 -33 14h-50q-14 0 -14 15q0 14 14 14h254q15 0 15 -14q0 -6 -4.5 -10.5t-10.5 -4.5h-49
q-28 0 -56 -20t-38 -48l-398 -1047l-6 -15v-182q0 -26 18.5 -44.5t44.5 -18.5h50q14 0 14 -14q0 -15 -14 -15h-127h-199h-1h-127q-14 0 -14 15q0 14 14 14h50q26 0 44.5 18.5t18.5 44.5v181l-222 584l-182 479q-10 28 -38 48t-56 20h-49z" />
    <glyph glyph-name="Y" unicode="&#xdd;" horiz-adv-x="1378" 
d="M27 1404q-6 0 -10.5 4.5t-4.5 10.5q0 14 15 14h127h212h1h127q15 0 15 -14q0 -6 -4.5 -10.5t-10.5 -4.5h-50q-24 0 -33 -14q-11 -17 -1 -44l384 -1011l385 1011q10 27 -1 44q-11 14 -33 14h-50q-14 0 -14 15q0 14 14 14h254q15 0 15 -14q0 -6 -4.5 -10.5t-10.5 -4.5h-49
q-28 0 -56 -20t-38 -48l-398 -1047l-6 -15v-182q0 -26 18.5 -44.5t44.5 -18.5h50q14 0 14 -14q0 -15 -14 -15h-127h-199h-1h-127q-14 0 -14 15q0 14 14 14h50q26 0 44.5 18.5t18.5 44.5v181l-222 584l-182 479q-10 28 -38 48t-56 20h-49z" />
    <glyph glyph-name="Z" unicode="Z" horiz-adv-x="1124" 
d="M27 1031q-6 0 -10.5 4.5t-4.5 10.5v373q0 6 4.5 10.5t10.5 4.5h1068q7 0 12 -8t0 -14l-777 -1305q-29 -48 -80 -78h617q89 0 151 62.5t62 150.5v146q0 6 4.5 10.5t10.5 4.5q14 0 14 -15v-373q0 -15 -14 -15h-1068q-8 0 -13 8t0 14l777 1305q27 47 80 78h-617
q-88 0 -150.5 -62.5t-62.5 -151.5v-145q0 -15 -14 -15z" />
    <glyph glyph-name="a" unicode="a" horiz-adv-x="894" 
d="M878 128q6 -14 -7 -20l-50 -23l-77 -37h-1l-199 -95q-2 -1 -6 -1q-6 0 -8 2q-7 5 -7 13v87q0 18 -5 23q-3 3 -16 -5v0v-1l-114 -65q-54 -25 -113 -25q-75 0 -140 40t-98 110q-46 98 -9 200.5t135 149.5l146 62v0l1 1l213 90q-2 145 -50 249t-113 104h-1q-12 0 -17 -1
q-34 -2 -37 -3q0 -1 -1 -1q-30 -6 -33 -17q-5 -19 40 -64q47 -47 47 -113.5t-47 -113.5t-114 -47q-66 0 -113 47t-47 113.5t47 113.5q90 90 215 110h1h3q22 4 37 4h1q5 1 19 1q162 0 277 -115t115 -277v-221v-104v-160q0 -22 13 -30q16 -11 44 2l49 24q14 6 20 -7zM523 525
q0 48 30 91l-231 -99h-1q-82 -39 -111.5 -126t9.5 -171q43 -90 117.5 -124.5t151.5 1.5l13 8q22 13 22 61v359z" />
    <glyph glyph-name="a" unicode="&#xe5;" horiz-adv-x="894" 
d="M878 128q6 -14 -7 -20l-50 -23l-77 -37h-1l-199 -95q-2 -1 -6 -1q-6 0 -8 2q-7 5 -7 13v87q0 18 -5 23q-3 3 -16 -5v0v-1l-114 -65q-54 -25 -113 -25q-75 0 -140 40t-98 110q-46 98 -9 200.5t135 149.5l146 62v0l1 1l213 90q-2 145 -50 249t-113 104h-1q-12 0 -17 -1
q-34 -2 -37 -3q0 -1 -1 -1q-30 -6 -33 -17q-5 -19 40 -64q47 -47 47 -113.5t-47 -113.5t-114 -47q-66 0 -113 47t-47 113.5t47 113.5q90 90 215 110h1h3q22 4 37 4h1q5 1 19 1q162 0 277 -115t115 -277v-221v-104v-160q0 -22 13 -30q16 -11 44 2l49 24q14 6 20 -7zM523 525
q0 48 30 91l-231 -99h-1q-82 -39 -111.5 -126t9.5 -171q43 -90 117.5 -124.5t151.5 1.5l13 8q22 13 22 61v359z" />
    <glyph glyph-name="a" unicode="&#xe4;" horiz-adv-x="894" 
d="M878 128q6 -14 -7 -20l-50 -23l-77 -37h-1l-199 -95q-2 -1 -6 -1q-6 0 -8 2q-7 5 -7 13v87q0 18 -5 23q-3 3 -16 -5v0v-1l-114 -65q-54 -25 -113 -25q-75 0 -140 40t-98 110q-46 98 -9 200.5t135 149.5l146 62v0l1 1l213 90q-2 145 -50 249t-113 104h-1q-12 0 -17 -1
q-34 -2 -37 -3q0 -1 -1 -1q-30 -6 -33 -17q-5 -19 40 -64q47 -47 47 -113.5t-47 -113.5t-114 -47q-66 0 -113 47t-47 113.5t47 113.5q90 90 215 110h1h3q22 4 37 4h1q5 1 19 1q162 0 277 -115t115 -277v-221v-104v-160q0 -22 13 -30q16 -11 44 2l49 24q14 6 20 -7zM523 525
q0 48 30 91l-231 -99h-1q-82 -39 -111.5 -126t9.5 -171q43 -90 117.5 -124.5t151.5 1.5l13 8q22 13 22 61v359z" />
    <glyph glyph-name="a" unicode="&#xe3;" horiz-adv-x="894" 
d="M878 128q6 -14 -7 -20l-50 -23l-77 -37h-1l-199 -95q-2 -1 -6 -1q-6 0 -8 2q-7 5 -7 13v87q0 18 -5 23q-3 3 -16 -5v0v-1l-114 -65q-54 -25 -113 -25q-75 0 -140 40t-98 110q-46 98 -9 200.5t135 149.5l146 62v0l1 1l213 90q-2 145 -50 249t-113 104h-1q-12 0 -17 -1
q-34 -2 -37 -3q0 -1 -1 -1q-30 -6 -33 -17q-5 -19 40 -64q47 -47 47 -113.5t-47 -113.5t-114 -47q-66 0 -113 47t-47 113.5t47 113.5q90 90 215 110h1h3q22 4 37 4h1q5 1 19 1q162 0 277 -115t115 -277v-221v-104v-160q0 -22 13 -30q16 -11 44 2l49 24q14 6 20 -7zM523 525
q0 48 30 91l-231 -99h-1q-82 -39 -111.5 -126t9.5 -171q43 -90 117.5 -124.5t151.5 1.5l13 8q22 13 22 61v359z" />
    <glyph glyph-name="a" unicode="&#xe2;" horiz-adv-x="894" 
d="M878 128q6 -14 -7 -20l-50 -23l-77 -37h-1l-199 -95q-2 -1 -6 -1q-6 0 -8 2q-7 5 -7 13v87q0 18 -5 23q-3 3 -16 -5v0v-1l-114 -65q-54 -25 -113 -25q-75 0 -140 40t-98 110q-46 98 -9 200.5t135 149.5l146 62v0l1 1l213 90q-2 145 -50 249t-113 104h-1q-12 0 -17 -1
q-34 -2 -37 -3q0 -1 -1 -1q-30 -6 -33 -17q-5 -19 40 -64q47 -47 47 -113.5t-47 -113.5t-114 -47q-66 0 -113 47t-47 113.5t47 113.5q90 90 215 110h1h3q22 4 37 4h1q5 1 19 1q162 0 277 -115t115 -277v-221v-104v-160q0 -22 13 -30q16 -11 44 2l49 24q14 6 20 -7zM523 525
q0 48 30 91l-231 -99h-1q-82 -39 -111.5 -126t9.5 -171q43 -90 117.5 -124.5t151.5 1.5l13 8q22 13 22 61v359z" />
    <glyph glyph-name="a" unicode="&#xe1;" horiz-adv-x="894" 
d="M878 128q6 -14 -7 -20l-50 -23l-77 -37h-1l-199 -95q-2 -1 -6 -1q-6 0 -8 2q-7 5 -7 13v87q0 18 -5 23q-3 3 -16 -5v0v-1l-114 -65q-54 -25 -113 -25q-75 0 -140 40t-98 110q-46 98 -9 200.5t135 149.5l146 62v0l1 1l213 90q-2 145 -50 249t-113 104h-1q-12 0 -17 -1
q-34 -2 -37 -3q0 -1 -1 -1q-30 -6 -33 -17q-5 -19 40 -64q47 -47 47 -113.5t-47 -113.5t-114 -47q-66 0 -113 47t-47 113.5t47 113.5q90 90 215 110h1h3q22 4 37 4h1q5 1 19 1q162 0 277 -115t115 -277v-221v-104v-160q0 -22 13 -30q16 -11 44 2l49 24q14 6 20 -7zM523 525
q0 48 30 91l-231 -99h-1q-82 -39 -111.5 -126t9.5 -171q43 -90 117.5 -124.5t151.5 1.5l13 8q22 13 22 61v359z" />
    <glyph glyph-name="a" unicode="&#xe0;" horiz-adv-x="894" 
d="M878 128q6 -14 -7 -20l-50 -23l-77 -37h-1l-199 -95q-2 -1 -6 -1q-6 0 -8 2q-7 5 -7 13v87q0 18 -5 23q-3 3 -16 -5v0v-1l-114 -65q-54 -25 -113 -25q-75 0 -140 40t-98 110q-46 98 -9 200.5t135 149.5l146 62v0l1 1l213 90q-2 145 -50 249t-113 104h-1q-12 0 -17 -1
q-34 -2 -37 -3q0 -1 -1 -1q-30 -6 -33 -17q-5 -19 40 -64q47 -47 47 -113.5t-47 -113.5t-114 -47q-66 0 -113 47t-47 113.5t47 113.5q90 90 215 110h1h3q22 4 37 4h1q5 1 19 1q162 0 277 -115t115 -277v-221v-104v-160q0 -22 13 -30q16 -11 44 2l49 24q14 6 20 -7zM523 525
q0 48 30 91l-231 -99h-1q-82 -39 -111.5 -126t9.5 -171q43 -90 117.5 -124.5t151.5 1.5l13 8q22 13 22 61v359z" />
    <glyph glyph-name="b" unicode="b" horiz-adv-x="995" 
d="M589 1002q162 0 277 -114.5t115 -276.5v-219q0 -162 -115 -277t-277 -115q-86 0 -169 39v0l-53 25l-14 6l-194 -69q-2 -1 -5 -1q-5 0 -8 3q-6 5 -6 11v167v1v638v2v500l-1 1q0 23 -13 31q-15 10 -43 -3l-50 -23q-4 -2 -6 -2q-10 0 -13 8q-6 14 7 20l49 23l78 37l199 95
q8 4 14 -1q7 -5 7 -12v-557l52 25q77 38 169 38zM752 392v219q0 148 -48 255t-115 107q-83 0 -157 -36v0l-102 -48l6 -3q32 -20 32 -69v-657q0 -30 17.5 -55.5t46.5 -39.5v0q73 -36 157 -36q67 0 115 107.5t48 255.5z" />
    <glyph glyph-name="c" unicode="c" horiz-adv-x="989" 
d="M745 817q50 26 52 53q1 22 -37 49v1q-6 5 -11 7q-8 4 -11 6q-10 6 -20 10q-8 4 -26 12q-39 15 -78 26q-52 11 -101 11q-74 0 -137 -65.5t-99.5 -179t-36.5 -246.5q0 -203 80 -347t193 -144q133 0 246 71t174 194q8 13 19 7q14 -8 7 -20q-65 -130 -185 -205.5t-261 -75.5
q-102 0 -194.5 41t-159.5 111t-107 166t-40 202t40 202t107 166t159.5 111t194.5 41q55 0 107 -12h1q1 -1 3.5 -1t3.5 -1q34 -8 75 -25q6 -2 15.5 -7t12.5 -6v0q7 -3 21 -11q8 -4 11 -6q1 -1 3.5 -2.5t3.5 -1.5q2 -1 6 -5q110 -70 172 -183l2 -4l1 -1v-1q5 -7 8 -14v0
q28 -62 5 -124t-84 -90q-33 -15 -67 -15q-47 0 -86.5 24.5t-59.5 68.5q-28 60 -5.5 122.5t82.5 90.5h1z" />
    <glyph glyph-name="c" unicode="&#xe7;" horiz-adv-x="989" 
d="M745 817q50 26 52 53q1 22 -37 49v1q-6 5 -11 7q-8 4 -11 6q-10 6 -20 10q-8 4 -26 12q-39 15 -78 26q-52 11 -101 11q-74 0 -137 -65.5t-99.5 -179t-36.5 -246.5q0 -203 80 -347t193 -144q133 0 246 71t174 194q8 13 19 7q14 -8 7 -20q-65 -130 -185 -205.5t-261 -75.5
q-102 0 -194.5 41t-159.5 111t-107 166t-40 202t40 202t107 166t159.5 111t194.5 41q55 0 107 -12h1q1 -1 3.5 -1t3.5 -1q34 -8 75 -25q6 -2 15.5 -7t12.5 -6v0q7 -3 21 -11q8 -4 11 -6q1 -1 3.5 -2.5t3.5 -1.5q2 -1 6 -5q110 -70 172 -183l2 -4l1 -1v-1q5 -7 8 -14v0
q28 -62 5 -124t-84 -90q-33 -15 -67 -15q-47 0 -86.5 24.5t-59.5 68.5q-28 60 -5.5 122.5t82.5 90.5h1z" />
    <glyph glyph-name="d" unicode="d" horiz-adv-x="995" 
d="M979 128q6 -14 -7 -20l-49 -23h-1l-77 -37l-199 -95q-2 -1 -6 -1q-6 0 -8 2q-7 5 -7 13v63q0 8 -6 13q-14 10 -46 -4q-83 -39 -169 -39q-162 0 -277 115t-115 277v219q0 162 115 276.5t277 114.5q92 0 169 -38l52 -25v384q0 23 -13 31q-15 11 -44 -3l-49 -23q-4 -2 -7 -2
q-10 0 -13 8q-6 14 7 20l50 23l77 37l200 95q8 4 14 -1q6 -4 6 -12v-674v-640v-43q0 -21 14 -30q16 -11 43 2l50 24q14 6 19 -7zM657 886q1 0 2.5 1t2.5 2l-29 14l-72 34v0q-73 36 -157 36q-67 0 -115 -107t-48 -255v-219q0 -148 48 -255.5t115 -107.5q84 0 157 36v0
q29 14 46.5 39.5t17.5 55.5v657q0 48 32 69z" />
    <glyph glyph-name="e" unicode="e" horiz-adv-x="1028" 
d="M514 1021q136 0 251 -69.5t182 -189.5t67 -261q0 -15 -14 -15h-199h-519q-16 0 -26 -10q-13 -13 -13 -41q14 -181 91 -303t180 -122q133 0 245.5 71t173.5 194q8 13 19 7q14 -8 7 -20q-64 -130 -184 -205.5t-261 -75.5v0h-1q-102 0 -194.5 41t-159.5 111t-107 166
t-40 202q0 141 67.5 261t183 189.5t251.5 69.5zM771 526q12 12 12 41q-14 181 -90 303t-179 122t-180 -122t-91 -303q0 -28 13 -41q11 -11 26 -11h463q15 0 26 11z" />
    <glyph glyph-name="e" unicode="&#xeb;" horiz-adv-x="1028" 
d="M514 1021q136 0 251 -69.5t182 -189.5t67 -261q0 -15 -14 -15h-199h-519q-16 0 -26 -10q-13 -13 -13 -41q14 -181 91 -303t180 -122q133 0 245.5 71t173.5 194q8 13 19 7q14 -8 7 -20q-64 -130 -184 -205.5t-261 -75.5v0h-1q-102 0 -194.5 41t-159.5 111t-107 166
t-40 202q0 141 67.5 261t183 189.5t251.5 69.5zM771 526q12 12 12 41q-14 181 -90 303t-179 122t-180 -122t-91 -303q0 -28 13 -41q11 -11 26 -11h463q15 0 26 11z" />
    <glyph glyph-name="e" unicode="&#xea;" horiz-adv-x="1028" 
d="M514 1021q136 0 251 -69.5t182 -189.5t67 -261q0 -15 -14 -15h-199h-519q-16 0 -26 -10q-13 -13 -13 -41q14 -181 91 -303t180 -122q133 0 245.5 71t173.5 194q8 13 19 7q14 -8 7 -20q-64 -130 -184 -205.5t-261 -75.5v0h-1q-102 0 -194.5 41t-159.5 111t-107 166
t-40 202q0 141 67.5 261t183 189.5t251.5 69.5zM771 526q12 12 12 41q-14 181 -90 303t-179 122t-180 -122t-91 -303q0 -28 13 -41q11 -11 26 -11h463q15 0 26 11z" />
    <glyph glyph-name="e" unicode="&#xe9;" horiz-adv-x="1028" 
d="M514 1021q136 0 251 -69.5t182 -189.5t67 -261q0 -15 -14 -15h-199h-519q-16 0 -26 -10q-13 -13 -13 -41q14 -181 91 -303t180 -122q133 0 245.5 71t173.5 194q8 13 19 7q14 -8 7 -20q-64 -130 -184 -205.5t-261 -75.5v0h-1q-102 0 -194.5 41t-159.5 111t-107 166
t-40 202q0 141 67.5 261t183 189.5t251.5 69.5zM771 526q12 12 12 41q-14 181 -90 303t-179 122t-180 -122t-91 -303q0 -28 13 -41q11 -11 26 -11h463q15 0 26 11z" />
    <glyph glyph-name="e" unicode="&#xe8;" horiz-adv-x="1028" 
d="M514 1021q136 0 251 -69.5t182 -189.5t67 -261q0 -15 -14 -15h-199h-519q-16 0 -26 -10q-13 -13 -13 -41q14 -181 91 -303t180 -122q133 0 245.5 71t173.5 194q8 13 19 7q14 -8 7 -20q-64 -130 -184 -205.5t-261 -75.5v0h-1q-102 0 -194.5 41t-159.5 111t-107 166
t-40 202q0 141 67.5 261t183 189.5t251.5 69.5zM771 526q12 12 12 41q-14 181 -90 303t-179 122t-180 -122t-91 -303q0 -28 13 -41q11 -11 26 -11h463q15 0 26 11z" />
    <glyph glyph-name="f" unicode="f" horiz-adv-x="505" 
d="M808 1319q47 -47 47 -114t-47 -114t-114 -47t-114 47t-47 114t47 114q45 45 40 64q-3 11 -32 17h-1q-22 4 -37 4q-7 1 -19 1q-66 0 -114.5 -107.5t-48.5 -254.5q0 -17 12 -29t29 -12h71q15 0 15 -14q0 -6 -4.5 -10.5t-10.5 -4.5h-150q38 -35 38 -85v-795v-1
q0 -26 18.5 -44.5t44.5 -18.5h49q15 0 15 -14q0 -6 -4.5 -10.5t-10.5 -4.5h-127h-1h-197h-1h-127q-6 0 -10.5 4.5t-4.5 10.5q0 14 15 14h49q26 0 44.5 18.5t18.5 44.5l1 1v880h-64q-14 0 -14 15q0 14 14 14h64v40q0 162 114.5 277t276.5 115v-1h21q14 0 38 -4h1v0h1h1
q125 -20 215 -110z" />
    <glyph glyph-name="g" unicode="g" horiz-adv-x="1044" 
d="M763 287q140 -38 215 -162t44 -266v0v-1l-3 -15q-30 -112 -119 -186q0 -1 -1 -1t-2 -1l-3 -3h-1q-101 -79 -224 -79q-45 0 -85 10h-1v0q-3 0 -7 2l-2 1h-2q-64 17 -97 75t-16 122q18 65 75 98q57 32 122 15q65 -18 98 -75q32 -57 15 -122q-14 -51 4 -62q25 -17 103 38v0
l1 1q83 67 113 173l1 1q1 2 2 6.5t1 6.5v1q17 85 -29 159.5t-130 97.5q-101 28 -188 -34l-160 -106q-54 -36 -119.5 -45.5t-128.5 7.5q-119 32 -182.5 137t-36.5 226v1l3 12v1q27 99 108 168q-46 82 -46 174q0 148 105.5 253.5t254.5 105.5q63 0 124 -22q-5 35 -4 60v1
q0 11 2 31l1 4q0 1 0.5 2.5t0.5 2.5v1v0q19 140 118 233q46 45 115 43q68 -2 113 -50q46 -49 44 -115t-50 -112q-47 -44 -111 -44q-58 0 -101 36v0h-1v1l-2 1v1q0 1 -1 1q-10 8 -12 10q-3 3 -4 5q-39 36 -58 30q-16 -5 -22 -45v0v-4l-1 -4q-2 -20 -2 -29q-1 -30 6 -73
q92 -44 148 -131.5t56 -192.5q0 -148 -105 -253.5t-254 -105.5q-91 0 -170.5 43.5t-128.5 116.5q-71 -62 -95 -151l-3 -12q-12 -63 22 -118t96 -72q69 -18 132 21l176 113q136 85 289 43zM445 992q-50 0 -90.5 -94.5t-40.5 -235.5t40.5 -235.5t90.5 -94.5t90 94t40 236
t-40 236t-90 94z" />
    <glyph glyph-name="h" unicode="h" horiz-adv-x="1122" 
d="M1093 29q15 0 15 -14q0 -6 -4.5 -10.5t-10.5 -4.5h-453q-6 0 -10.5 4.5t-4.5 10.5q0 14 15 14h49q26 0 44.5 18.5t18.5 44.5v519q0 148 -48 255t-115 107q-83 0 -157 -36v0l-72 -34l-30 -14q1 0 3 -1.5t3 -2.5q32 -20 32 -68v-727q1 -25 19 -43t44 -18h49q6 0 10.5 -4.5
t4.5 -10.5q0 -14 -15 -14h-126h-1h-199h-127q-15 0 -15 14q0 6 4.5 10.5t10.5 4.5h50q26 0 44.5 18.5t18.5 44.5v728v2v501h-1q0 23 -13 31q-15 10 -43 -3l-50 -23q-4 -2 -6 -2q-10 0 -13 8q-6 14 7 20l49 23l78 37l199 95q8 3 14 -1q7 -5 7 -12v-557l51 25q77 38 170 38
q162 0 277 -114.5t115 -276.5v-519q0 -26 18.5 -44.5t44.5 -18.5h49z" />
    <glyph glyph-name="i" unicode="i" horiz-adv-x="509" 
d="M254 1112q-67 0 -114 47t-47 114t47 114t114 47t113.5 -47t46.5 -114t-46.5 -114t-113.5 -47zM480 29q15 0 15 -14q0 -6 -4.5 -10.5t-10.5 -4.5h-126h-1h-199h-1h-126q-6 0 -10.5 4.5t-4.5 10.5q0 14 15 14h50q25 0 43 18t19 44v772q0 22 -13 30q-16 11 -43 -2l-50 -24
q-2 -1 -6 -1q-10 0 -13 8q-6 14 7 19l49 24l78 37l199 94q9 4 14 0q7 -5 7 -13v-943q0 -26 18.5 -44.5t44.5 -18.5h49z" />
    <glyph glyph-name="i" unicode="&#xef;" horiz-adv-x="509" 
d="M254 1112q-67 0 -114 47t-47 114t47 114t114 47t113.5 -47t46.5 -114t-46.5 -114t-113.5 -47zM480 29q15 0 15 -14q0 -6 -4.5 -10.5t-10.5 -4.5h-126h-1h-199h-1h-126q-6 0 -10.5 4.5t-4.5 10.5q0 14 15 14h50q25 0 43 18t19 44v772q0 22 -13 30q-16 11 -43 -2l-50 -24
q-2 -1 -6 -1q-10 0 -13 8q-6 14 7 19l49 24l78 37l199 94q9 4 14 0q7 -5 7 -13v-943q0 -26 18.5 -44.5t44.5 -18.5h49z" />
    <glyph glyph-name="i" unicode="&#xee;" horiz-adv-x="509" 
d="M254 1112q-67 0 -114 47t-47 114t47 114t114 47t113.5 -47t46.5 -114t-46.5 -114t-113.5 -47zM480 29q15 0 15 -14q0 -6 -4.5 -10.5t-10.5 -4.5h-126h-1h-199h-1h-126q-6 0 -10.5 4.5t-4.5 10.5q0 14 15 14h50q25 0 43 18t19 44v772q0 22 -13 30q-16 11 -43 -2l-50 -24
q-2 -1 -6 -1q-10 0 -13 8q-6 14 7 19l49 24l78 37l199 94q9 4 14 0q7 -5 7 -13v-943q0 -26 18.5 -44.5t44.5 -18.5h49z" />
    <glyph glyph-name="i" unicode="&#xed;" horiz-adv-x="509" 
d="M254 1112q-67 0 -114 47t-47 114t47 114t114 47t113.5 -47t46.5 -114t-46.5 -114t-113.5 -47zM480 29q15 0 15 -14q0 -6 -4.5 -10.5t-10.5 -4.5h-126h-1h-199h-1h-126q-6 0 -10.5 4.5t-4.5 10.5q0 14 15 14h50q25 0 43 18t19 44v772q0 22 -13 30q-16 11 -43 -2l-50 -24
q-2 -1 -6 -1q-10 0 -13 8q-6 14 7 19l49 24l78 37l199 94q9 4 14 0q7 -5 7 -13v-943q0 -26 18.5 -44.5t44.5 -18.5h49z" />
    <glyph glyph-name="i" unicode="&#xec;" horiz-adv-x="509" 
d="M254 1112q-67 0 -114 47t-47 114t47 114t114 47t113.5 -47t46.5 -114t-46.5 -114t-113.5 -47zM480 29q15 0 15 -14q0 -6 -4.5 -10.5t-10.5 -4.5h-126h-1h-199h-1h-126q-6 0 -10.5 4.5t-4.5 10.5q0 14 15 14h50q25 0 43 18t19 44v772q0 22 -13 30q-16 11 -43 -2l-50 -24
q-2 -1 -6 -1q-10 0 -13 8q-6 14 7 19l49 24l78 37l199 94q9 4 14 0q7 -5 7 -13v-943q0 -26 18.5 -44.5t44.5 -18.5h49z" />
    <glyph glyph-name="j" unicode="j" horiz-adv-x="428" 
d="M253 1112q-67 0 -114 47t-47 114t47 114t114 47t114 -47t47 -114t-47 -114t-114 -47zM346 1048q9 4 14 0q7 -5 7 -13v-1075q0 -162 -114.5 -276.5t-276.5 -114.5h-6.5h-8h-6.5q-15 0 -39 4h-1v0h-1q-125 20 -215 110q-47 47 -47 114t47 114t113.5 47t113.5 -47t47 -114
t-47 -114q-45 -45 -40 -64q3 -11 33 -17h1h1q22 -4 35 -4h1q1 -1 9 0h9q67 0 115.5 107t48.5 255v903q0 22 -13 30q-16 11 -44 -2l-50 -24q-2 -1 -6 -1q-10 0 -13 8q-6 14 7 19l50 24l77 37z" />
    <glyph glyph-name="k" unicode="k" horiz-adv-x="1122" 
d="M1093 29q14 0 14 -14q0 -15 -14 -15h-359v0h-127q-6 0 -10.5 4.5t-4.5 10.5q0 14 15 14h49q20 0 27 12q9 14 -8 44v1l-225 377l-31 -29l-15 -15v-1l-3 -2q-33 -33 -33 -82v-242q0 -26 18.5 -44.5t44.5 -18.5h49q15 0 15 -14q0 -6 -4.5 -10.5t-10.5 -4.5h-126h-1h-199h-1
h-126q-6 0 -10.5 4.5t-4.5 10.5q0 14 15 14h50q25 0 43 18t19 44v1232q0 23 -13 31q-15 10 -43 -3l-50 -23q-4 -2 -6 -2q-10 0 -13 8q-6 14 7 20l49 23l78 37l199 95q8 3 14 -1q7 -5 7 -12v-1051l1 -7q8 -4 30 17l477 466q34 33 29 47q-2 5 -17 5h-50q-14 0 -14 15
q0 14 14 14h255q14 0 14 -14q0 -15 -14 -15h-50q-29 0 -72.5 -21.5t-74.5 -51.5l-279 -273l316 -529q17 -28 49.5 -48.5t60.5 -20.5h50z" />
    <glyph glyph-name="l" unicode="l" horiz-adv-x="509" 
d="M480 29q15 0 15 -14q0 -6 -4.5 -10.5t-10.5 -4.5h-126h-1h-199h-1h-126q-6 0 -10.5 4.5t-4.5 10.5q0 14 15 14h50q25 0 43 18t19 44v1232q0 23 -13 31q-15 10 -43 -3l-50 -23q-4 -2 -6 -2q-10 0 -13 8q-6 14 7 20l49 23l78 37l199 95q8 3 14 -1q7 -5 7 -12v-1404
q0 -26 18.5 -44.5t44.5 -18.5h49z" />
    <glyph glyph-name="m" unicode="m" horiz-adv-x="1738" 
d="M1710 29q15 0 15 -14q0 -6 -4.5 -10.5t-10.5 -4.5h-127h-1h-198h-128q-14 0 -14 15q0 14 14 14h50q26 0 44.5 18.5t18.5 44.5v519q0 147 -48.5 254.5t-114.5 107.5q-179 0 -314 -115q89 -108 89 -247v-519q0 -26 18.5 -44.5t44.5 -18.5h49q15 0 15 -14q0 -6 -4.5 -10.5
t-10.5 -4.5h-453q-6 0 -10.5 4.5t-4.5 10.5q0 14 15 14h49q26 0 44.5 18.5t18.5 44.5v519q0 148 -48 255t-115 107q-83 0 -157 -36v0l-72 -34h-1l-30 -14q1 -1 3.5 -2.5t3.5 -1.5q32 -20 32 -68v-724v-1q0 -26 18.5 -44.5t44.5 -18.5h49q15 0 15 -14q0 -6 -4.5 -10.5
t-10.5 -4.5h-126h-1h-199h-1h-126q-6 0 -10.5 4.5t-4.5 10.5q0 14 15 14h50q25 0 43 17.5t19 42.5v776q0 20 -13 28q-16 11 -43 -2l-50 -24q-2 -1 -6 -1q-10 0 -13 8q-6 14 7 20l49 23l78 37l199 94q9 4 14 0q7 -5 7 -13v-96l51 25q77 38 170 38q82 0 155.5 -32.5
t128.5 -90.5q145 123 333 123q162 0 276.5 -114.5t114.5 -276.5v-519q0 -26 18.5 -44.5t44.5 -18.5h50z" />
    <glyph glyph-name="n" unicode="n" horiz-adv-x="1122" 
d="M1093 29q15 0 15 -14q0 -6 -4.5 -10.5t-10.5 -4.5h-453q-6 0 -10.5 4.5t-4.5 10.5q0 14 15 14h49q26 0 44.5 18.5t18.5 44.5v519q0 148 -48 255t-115 107q-83 0 -157 -36v0l-72 -34l-31 -14q1 -1 3.5 -2.5t3.5 -1.5q32 -20 32 -68v-726q1 -26 19.5 -44t43.5 -18h49
q6 0 10.5 -4.5t4.5 -10.5q0 -14 -15 -14h-126h-1h-199h-127q-15 0 -15 14q0 6 4.5 10.5t10.5 4.5h50q26 0 44.5 18.5t18.5 44.5v770l-1 1q0 22 -13 30q-16 11 -43 -2l-50 -24q-2 -1 -6 -1q-10 0 -13 8q-6 14 7 19l49 24l78 37l199 94q8 4 14 0q7 -5 7 -13v-96l52 25
q77 38 169 38q162 0 277 -114.5t115 -276.5v-519q0 -26 18.5 -44.5t44.5 -18.5h49z" />
    <glyph glyph-name="n" unicode="&#xf1;" horiz-adv-x="1122" 
d="M1093 29q15 0 15 -14q0 -6 -4.5 -10.5t-10.5 -4.5h-453q-6 0 -10.5 4.5t-4.5 10.5q0 14 15 14h49q26 0 44.5 18.5t18.5 44.5v519q0 148 -48 255t-115 107q-83 0 -157 -36v0l-72 -34l-31 -14q1 -1 3.5 -2.5t3.5 -1.5q32 -20 32 -68v-726q1 -26 19.5 -44t43.5 -18h49
q6 0 10.5 -4.5t4.5 -10.5q0 -14 -15 -14h-126h-1h-199h-127q-15 0 -15 14q0 6 4.5 10.5t10.5 4.5h50q26 0 44.5 18.5t18.5 44.5v770l-1 1q0 22 -13 30q-16 11 -43 -2l-50 -24q-2 -1 -6 -1q-10 0 -13 8q-6 14 7 19l49 24l78 37l199 94q8 4 14 0q7 -5 7 -13v-96l52 25
q77 38 169 38q162 0 277 -114.5t115 -276.5v-519q0 -26 18.5 -44.5t44.5 -18.5h49z" />
    <glyph glyph-name="o" unicode="o" horiz-adv-x="1028" 
d="M513 1021q102 0 194.5 -41t159.5 -111t107 -166t40 -202t-40 -202t-107 -166t-159.5 -111t-194.5 -41t-194.5 41t-159.5 111t-107 166t-40 202t40 202t107 166t159.5 111t194.5 41zM513 10q113 0 193 144t80 347q0 133 -36.5 246.5t-99.5 179t-137 65.5t-137 -65.5
t-99.5 -179t-36.5 -246.5q0 -203 80 -347t193 -144z" />
    <glyph glyph-name="o" unicode="&#xf8;" horiz-adv-x="1028" 
d="M513 1021q102 0 194.5 -41t159.5 -111t107 -166t40 -202t-40 -202t-107 -166t-159.5 -111t-194.5 -41t-194.5 41t-159.5 111t-107 166t-40 202t40 202t107 166t159.5 111t194.5 41zM513 10q113 0 193 144t80 347q0 133 -36.5 246.5t-99.5 179t-137 65.5t-137 -65.5
t-99.5 -179t-36.5 -246.5q0 -203 80 -347t193 -144z" />
    <glyph glyph-name="o" unicode="&#xf6;" horiz-adv-x="1028" 
d="M513 1021q102 0 194.5 -41t159.5 -111t107 -166t40 -202t-40 -202t-107 -166t-159.5 -111t-194.5 -41t-194.5 41t-159.5 111t-107 166t-40 202t40 202t107 166t159.5 111t194.5 41zM513 10q113 0 193 144t80 347q0 133 -36.5 246.5t-99.5 179t-137 65.5t-137 -65.5
t-99.5 -179t-36.5 -246.5q0 -203 80 -347t193 -144z" />
    <glyph glyph-name="o" unicode="&#xf5;" horiz-adv-x="1028" 
d="M513 1021q102 0 194.5 -41t159.5 -111t107 -166t40 -202t-40 -202t-107 -166t-159.5 -111t-194.5 -41t-194.5 41t-159.5 111t-107 166t-40 202t40 202t107 166t159.5 111t194.5 41zM513 10q113 0 193 144t80 347q0 133 -36.5 246.5t-99.5 179t-137 65.5t-137 -65.5
t-99.5 -179t-36.5 -246.5q0 -203 80 -347t193 -144z" />
    <glyph glyph-name="o" unicode="&#xf4;" horiz-adv-x="1028" 
d="M513 1021q102 0 194.5 -41t159.5 -111t107 -166t40 -202t-40 -202t-107 -166t-159.5 -111t-194.5 -41t-194.5 41t-159.5 111t-107 166t-40 202t40 202t107 166t159.5 111t194.5 41zM513 10q113 0 193 144t80 347q0 133 -36.5 246.5t-99.5 179t-137 65.5t-137 -65.5
t-99.5 -179t-36.5 -246.5q0 -203 80 -347t193 -144z" />
    <glyph glyph-name="o" unicode="&#xf3;" horiz-adv-x="1028" 
d="M513 1021q102 0 194.5 -41t159.5 -111t107 -166t40 -202t-40 -202t-107 -166t-159.5 -111t-194.5 -41t-194.5 41t-159.5 111t-107 166t-40 202t40 202t107 166t159.5 111t194.5 41zM513 10q113 0 193 144t80 347q0 133 -36.5 246.5t-99.5 179t-137 65.5t-137 -65.5
t-99.5 -179t-36.5 -246.5q0 -203 80 -347t193 -144z" />
    <glyph glyph-name="o" unicode="&#xf2;" horiz-adv-x="1028" 
d="M513 1021q102 0 194.5 -41t159.5 -111t107 -166t40 -202t-40 -202t-107 -166t-159.5 -111t-194.5 -41t-194.5 41t-159.5 111t-107 166t-40 202t40 202t107 166t159.5 111t194.5 41zM513 10q113 0 193 144t80 347q0 133 -36.5 246.5t-99.5 179t-137 65.5t-137 -65.5
t-99.5 -179t-36.5 -246.5q0 -203 80 -347t193 -144z" />
    <glyph glyph-name="p" unicode="p" horiz-adv-x="995" 
d="M589 1002q162 0 277 -114.5t115 -276.5v-219q0 -162 -115 -277t-277 -115q-86 0 -169 39l-52 24v-474v-1q0 -26 18.5 -44.5t44.5 -18.5h50q14 0 14 -15q0 -14 -14 -14h-128h-198h-1h-127q-15 0 -15 14q0 6 4.5 10.5t10.5 4.5h50q25 0 43 18t19 44v1291q0 22 -13 30
q-15 10 -43 -3l-50 -23q-4 -2 -6 -2q-9 0 -13 9q-6 14 7 19l49 23l77 37h1l199 95q8 3 14 -1q7 -5 7 -12v-78q0 -9 6 -13q15 -9 45 5h1v0q77 38 169 38zM752 392v219q0 148 -48 255t-115 107q-83 0 -157 -36v0h-1q-63 -31 -63 -95v-656q0 -48 -32 -69q-1 -1 -3.5 -2t-3.5 -1
l103 -49q73 -36 157 -36q67 0 115 107.5t48 255.5z" />
    <glyph glyph-name="q" unicode="q" horiz-adv-x="997" 
d="M966 -475q6 0 10.5 -4.5t4.5 -10.5q0 -14 -15 -14h-127h-1h-198h-128q-14 0 -14 14q0 15 14 15h50q26 0 44.5 18.5t18.5 44.5v475l-52 -24q-80 -39 -169 -39q-162 0 -277 115t-115 277v219q0 162 115 276.5t277 114.5q88 0 169 -38h1l67 -32l193 70q6 3 13 -2t7 -12
v-1401q0 -26 18.5 -44t44.5 -18h49zM634 99l30 15q-1 0 -3.5 1t-3.5 2q-32 20 -32 69v657q0 29 -16.5 54.5t-45.5 39.5l-2 1q-71 35 -157 35q-67 0 -115 -107t-48 -255v-219q0 -148 48 -255.5t115 -107.5q84 0 157 36v0l72 34h1z" />
    <glyph glyph-name="r" unicode="r" horiz-adv-x="858" 
d="M838 867q17 -64 -16 -122t-98 -75q-21 -6 -42 -6q-41 0 -80 22q-52 30 -71 86t3 111q0 3 2 7q2 5 8 15v1l1 2l1 1v1q25 49 14 65q-9 13 -48 8v0q-2 -1 -7.5 -1.5t-7.5 -0.5q-3 -1 -11 -3l-12 -3q-55 -14 -106 -48v-835q0 -26 18.5 -44.5t44.5 -18.5h49q15 0 15 -14
q0 -6 -4.5 -10.5t-10.5 -4.5h-126h-1h-199h-1h-126q-6 0 -10.5 4.5t-4.5 10.5q0 14 15 14h50q25 0 43 18t19 44v772q0 22 -13 30q-16 11 -43 -2l-50 -24q-2 -1 -6 -1q-10 0 -13 8q-6 14 7 19l49 24l78 37l199 94q9 4 14 0q7 -5 7 -13v-73q46 28 98 41q3 1 8 2.5t6 1.5
q2 1 5.5 1t5.5 1q3 1 9 2t8 1v0v0q131 20 245 -42v0v-1q8 -3 10 -4v-1v0q58 -34 75 -97z" />
    <glyph glyph-name="s" unicode="s" horiz-adv-x="835" 
d="M612 565q94 -29 152 -107.5t58 -177.5q0 -118 -80.5 -204t-197.5 -94h-1h-1q-6 -1 -19 -1h-219q-121 0 -206.5 85t-85.5 206q0 6 4.5 10.5t10.5 4.5q14 0 14 -15q0 -109 77 -185.5t186 -76.5h219q3 0 7 0.5t7 0.5h4q64 7 107 54.5t43 112.5q0 55 -33.5 99.5t-85.5 60.5
l-358 116q-91 29 -146.5 105.5t-55.5 171.5q0 115 78.5 199.5t193.5 91.5h1v0q6 1 19 1h218q8 0 24 -2v0h1h3h4q4 -1 11.5 -2.5t10.5 -1.5v0h1q19 -4 38 -11q2 -1 6 -2.5t6 -2.5q1 -1 3.5 -2t3.5 -1h1q1 0 2.5 -1t2.5 -2q2 -1 6 -3.5t6 -3.5v0h1q61 -34 98 -91.5t41 -125.5
v0v-8v0q0 -1 0.5 -5.5t0.5 -6.5q0 -1 -0.5 -1t-0.5 -1q-2 -46 -26.5 -84.5t-65.5 -57.5q-32 -15 -68 -15q-29 0 -55 10q-63 24 -91 84q-28 61 -5 123t84 90q31 15 67 15t39 11q2 5 -6.5 16t-26.5 22l-5 3l-6 3q-1 1 -2 1t-2 1q-2 1 -8 3l-10 5q-11 4 -35 10q-7 1 -23 3h-3
q-7 1 -22 1h-218h-14h-3q-61 -6 -102 -52t-41 -108q0 -52 30 -93.5t79 -58.5z" />
    <glyph glyph-name="t" unicode="t" horiz-adv-x="430" 
d="M412 128q6 -14 -7 -20l-49 -23l-78 -37l-199 -95q-2 -1 -6 -1q-6 0 -8 2q-7 5 -7 13v1006h-31q-6 0 -10.5 4.5t-4.5 10.5v0q0 14 15 14q95 0 163 73.5t68 176.5q0 15 14 15q6 0 10.5 -4.5t4.5 -10.5v-208q0 -17 12 -29.5t29 -12.5h1h60q15 0 15 -14q0 -6 -4.5 -10.5
t-10.5 -4.5h-140q37 -34 37 -85v-750q0 -20 14 -29q16 -11 43 2l50 24q14 6 19 -7z" />
    <glyph glyph-name="u" unicode="u" horiz-adv-x="1122" 
d="M1106 128q6 -14 -6 -19l-50 -24l-78 -37l-199 -94q-4 -2 -6 -2q-5 0 -8 3q-7 5 -7 12v96l-51 -25q-77 -38 -170 -38q-162 0 -277 115t-115 277v518q0 26 -18.5 44.5t-44.5 18.5h-49q-6 0 -10.5 4.5t-4.5 10.5q0 14 15 14h326q15 0 15 -14v-596q0 -148 48 -255.5
t115 -107.5q83 0 157 36v0l72 34h1l30 14q-1 0 -3.5 1.5t-3.5 2.5q-32 20 -32 69v725q-1 26 -19.5 44t-43.5 18h-49q-6 0 -10.5 4.5t-4.5 10.5q0 14 15 14h126h1h199q15 0 15 -14v-848v-1q0 -22 13 -30q16 -11 43 2h1l49 24q14 6 19 -7z" />
    <glyph glyph-name="u" unicode="&#xfc;" horiz-adv-x="1122" 
d="M1106 128q6 -14 -6 -19l-50 -24l-78 -37l-199 -94q-4 -2 -6 -2q-5 0 -8 3q-7 5 -7 12v96l-51 -25q-77 -38 -170 -38q-162 0 -277 115t-115 277v518q0 26 -18.5 44.5t-44.5 18.5h-49q-6 0 -10.5 4.5t-4.5 10.5q0 14 15 14h326q15 0 15 -14v-596q0 -148 48 -255.5
t115 -107.5q83 0 157 36v0l72 34h1l30 14q-1 0 -3.5 1.5t-3.5 2.5q-32 20 -32 69v725q-1 26 -19.5 44t-43.5 18h-49q-6 0 -10.5 4.5t-4.5 10.5q0 14 15 14h126h1h199q15 0 15 -14v-848v-1q0 -22 13 -30q16 -11 43 2h1l49 24q14 6 19 -7z" />
    <glyph glyph-name="u" unicode="&#xfb;" horiz-adv-x="1122" 
d="M1106 128q6 -14 -6 -19l-50 -24l-78 -37l-199 -94q-4 -2 -6 -2q-5 0 -8 3q-7 5 -7 12v96l-51 -25q-77 -38 -170 -38q-162 0 -277 115t-115 277v518q0 26 -18.5 44.5t-44.5 18.5h-49q-6 0 -10.5 4.5t-4.5 10.5q0 14 15 14h326q15 0 15 -14v-596q0 -148 48 -255.5
t115 -107.5q83 0 157 36v0l72 34h1l30 14q-1 0 -3.5 1.5t-3.5 2.5q-32 20 -32 69v725q-1 26 -19.5 44t-43.5 18h-49q-6 0 -10.5 4.5t-4.5 10.5q0 14 15 14h126h1h199q15 0 15 -14v-848v-1q0 -22 13 -30q16 -11 43 2h1l49 24q14 6 19 -7z" />
    <glyph glyph-name="u" unicode="&#xfa;" horiz-adv-x="1122" 
d="M1106 128q6 -14 -6 -19l-50 -24l-78 -37l-199 -94q-4 -2 -6 -2q-5 0 -8 3q-7 5 -7 12v96l-51 -25q-77 -38 -170 -38q-162 0 -277 115t-115 277v518q0 26 -18.5 44.5t-44.5 18.5h-49q-6 0 -10.5 4.5t-4.5 10.5q0 14 15 14h326q15 0 15 -14v-596q0 -148 48 -255.5
t115 -107.5q83 0 157 36v0l72 34h1l30 14q-1 0 -3.5 1.5t-3.5 2.5q-32 20 -32 69v725q-1 26 -19.5 44t-43.5 18h-49q-6 0 -10.5 4.5t-4.5 10.5q0 14 15 14h126h1h199q15 0 15 -14v-848v-1q0 -22 13 -30q16 -11 43 2h1l49 24q14 6 19 -7z" />
    <glyph glyph-name="u" unicode="&#xf9;" horiz-adv-x="1122" 
d="M1106 128q6 -14 -6 -19l-50 -24l-78 -37l-199 -94q-4 -2 -6 -2q-5 0 -8 3q-7 5 -7 12v96l-51 -25q-77 -38 -170 -38q-162 0 -277 115t-115 277v518q0 26 -18.5 44.5t-44.5 18.5h-49q-6 0 -10.5 4.5t-4.5 10.5q0 14 15 14h326q15 0 15 -14v-596q0 -148 48 -255.5
t115 -107.5q83 0 157 36v0l72 34h1l30 14q-1 0 -3.5 1.5t-3.5 2.5q-32 20 -32 69v725q-1 26 -19.5 44t-43.5 18h-49q-6 0 -10.5 4.5t-4.5 10.5q0 14 15 14h126h1h199q15 0 15 -14v-848v-1q0 -22 13 -30q16 -11 43 2h1l49 24q14 6 19 -7z" />
    <glyph glyph-name="v" unicode="v" horiz-adv-x="1122" 
d="M1093 1002q15 0 15 -14q0 -6 -4.5 -10.5t-10.5 -4.5h-49q-28 0 -56.5 -20t-40.5 -48l-374 -896q-4 -9 -13 -9t-13 9l-374 895v1q-12 28 -40.5 48t-56.5 20h-49q-6 0 -10.5 4.5t-4.5 10.5q0 14 15 14h470q14 0 14 -14q0 -15 -14 -15h-50q-23 0 -32 -14q-10 -16 1 -43
l252 -605l252 605v0q11 26 0 43q-9 14 -31 14h-50q-6 0 -10.5 4.5t-4.5 10.5q0 14 15 14h127h127z" />
    <glyph glyph-name="w" unicode="w" horiz-adv-x="1681" 
d="M1652 1002q15 0 15 -14q0 -6 -4.5 -10.5t-10.5 -4.5h-49q-28 0 -56.5 -20t-40.5 -48l-374 -896q-4 -9 -13 -9t-13 9l-266 637l-266 -637q-4 -9 -14 -9v0q-9 0 -13 9l-374 896q-12 28 -40.5 48t-56.5 20h-49q-6 0 -10.5 4.5t-4.5 10.5q0 14 15 14h127h343q14 0 14 -14
q0 -15 -14 -15h-50q-23 0 -32 -14q-10 -16 1 -43l252 -605l156 373l-92 221q-12 28 -40.5 48t-56.5 20h-49q-6 0 -10.5 4.5t-4.5 10.5q0 14 15 14h127h343q14 0 14 -14q0 -15 -14 -15h-50q-23 0 -32 -14q-11 -17 0 -43l253 -605l252 605q11 26 0 43q-9 14 -32 14h-49
q-6 0 -10.5 4.5t-4.5 10.5q0 14 15 14h127h127z" />
    <glyph glyph-name="x" unicode="x" horiz-adv-x="1124" 
d="M1093 29q14 0 14 -14q0 -15 -14 -15h-486q-6 0 -10.5 4.5t-4.5 10.5q0 14 15 14h49q20 0 27 12q9 16 -8 44l-231 388l-231 -388v0q-17 -28 -8 -44q7 -12 27 -12h49q15 0 15 -14q0 -6 -4.5 -10.5t-10.5 -4.5h-254q-6 0 -10.5 4.5t-4.5 10.5q0 14 15 14h49q28 0 61 21
t50 49l240 402l-239 402q-17 29 -50.5 49.5t-61.5 20.5h-49q-6 0 -10.5 4.5t-4.5 10.5q0 14 15 14h486q14 0 14 -14q0 -15 -14 -15h-50q-20 0 -26 -11q-10 -16 7 -44v-1l232 -387l231 388q17 28 8 44q-6 11 -27 11h-50q-14 0 -14 15q0 14 14 14h255q14 0 14 -14
q0 -15 -14 -15h-50q-28 0 -61 -20.5t-50 -49.5l-240 -402l240 -401q17 -29 50 -50t61 -21h50z" />
    <glyph glyph-name="y" unicode="y" horiz-adv-x="1122" 
d="M1093 1002q15 0 15 -14q0 -6 -4.5 -10.5t-10.5 -4.5h-49q-28 0 -56.5 -20t-40.5 -48l-373 -896l-9 -21l-126 -301q-27 -63 -87 -87q-30 -12 -61 -12q-32 0 -62 12q-62 25 -87 88t0 123q27 63 87 87q63 25 124 -1q27 -11 39 -15.5t31 -7t29.5 3.5t26 19.5t29 38.5t30.5 63
l6 16l-371 889q-12 28 -40.5 48.5t-56.5 20.5h-49q-6 0 -10.5 4.5t-4.5 10.5q0 14 15 14h127h343q14 0 14 -14q0 -15 -14 -15h-50q-23 0 -32 -14q-10 -16 1 -43l252 -605l252 605v0q11 26 0 43q-9 14 -31 14h-50q-6 0 -10.5 4.5t-4.5 10.5q0 14 15 14h127h127z" />
    <glyph glyph-name="y" unicode="&#xff;" horiz-adv-x="1122" 
d="M1093 1002q15 0 15 -14q0 -6 -4.5 -10.5t-10.5 -4.5h-49q-28 0 -56.5 -20t-40.5 -48l-373 -896l-9 -21l-126 -301q-27 -63 -87 -87q-30 -12 -61 -12q-32 0 -62 12q-62 25 -87 88t0 123q27 63 87 87q63 25 124 -1q27 -11 39 -15.5t31 -7t29.5 3.5t26 19.5t29 38.5t30.5 63
l6 16l-371 889q-12 28 -40.5 48.5t-56.5 20.5h-49q-6 0 -10.5 4.5t-4.5 10.5q0 14 15 14h127h343q14 0 14 -14q0 -15 -14 -15h-50q-23 0 -32 -14q-10 -16 1 -43l252 -605l252 605v0q11 26 0 43q-9 14 -31 14h-50q-6 0 -10.5 4.5t-4.5 10.5q0 14 15 14h127h127z" />
    <glyph glyph-name="y" unicode="&#xfd;" horiz-adv-x="1122" 
d="M1093 1002q15 0 15 -14q0 -6 -4.5 -10.5t-10.5 -4.5h-49q-28 0 -56.5 -20t-40.5 -48l-373 -896l-9 -21l-126 -301q-27 -63 -87 -87q-30 -12 -61 -12q-32 0 -62 12q-62 25 -87 88t0 123q27 63 87 87q63 25 124 -1q27 -11 39 -15.5t31 -7t29.5 3.5t26 19.5t29 38.5t30.5 63
l6 16l-371 889q-12 28 -40.5 48.5t-56.5 20.5h-49q-6 0 -10.5 4.5t-4.5 10.5q0 14 15 14h127h343q14 0 14 -14q0 -15 -14 -15h-50q-23 0 -32 -14q-10 -16 1 -43l252 -605l252 605v0q11 26 0 43q-9 14 -31 14h-50q-6 0 -10.5 4.5t-4.5 10.5q0 14 15 14h127h127z" />
    <glyph glyph-name="z" unicode="z" horiz-adv-x="868" 
d="M838 403q6 0 10.5 -4.5t4.5 -10.5v-373q0 -6 -4.5 -10.5t-10.5 -4.5h-811q-3 0 -7 2h-1l-1 1q0 1 -1 2l-2 2l-1 1q-2 4 -2 7l1 1q0 3 1 5v1l521 874l2 2q28 44 78 75h-361q-88 0 -150.5 -62.5t-62.5 -150.5v-146q0 -14 -14 -14q-15 0 -15 14v374q0 14 15 14h678h1h132h2
q3 0 5 -2q1 0 2 -1l3 -3l1 -1v-1q2 -4 2 -6q0 -3 -2 -7v-1l-523 -876q-27 -44 -78 -75h361q89 0 151 62.5t62 150.5v146q0 15 14 15z" />
    <glyph glyph-name="nonbreakingspace" unicode="&#xa0;" horiz-adv-x="727" 
 />
    <glyph glyph-name="softhyphen" unicode="&#xad;" horiz-adv-x="0" 
 />
    </font>
</defs>
</svg>
