<svg width="417" height="440" viewBox="0 0 417 440" fill="none" xmlns="http://www.w3.org/2000/svg">
<g clip-path="url(#clip0_1_12)">
<path d="M407.512 333.058L164.921 438.684C156.924 442.17 147.625 438.508 144.142 430.506L81.3423 286.118C77.8587 278.116 81.5185 268.812 89.5159 265.326L332.106 159.7C340.104 156.215 349.402 159.877 352.886 167.879L415.685 312.267C419.169 320.269 415.509 329.573 407.512 333.058Z" fill="#FCDAD9"/>
<g opacity="0.3">
<path d="M330.764 153.57L85.8155 260.213C79.404 263.007 71.4474 259.318 67.5029 251.723L7.06206 147.413C2.62964 138.868 5.01528 128.832 12.24 125.685L282.536 7.98837C289.761 4.84183 298.721 9.92783 301.947 19.0148L337.04 134.365C339.914 142.422 337.176 150.776 330.764 153.556V153.57Z" fill="black"/>
</g>
<g opacity="0.3">
<path d="M406.549 331.065L163.959 436.691C155.962 440.176 146.663 436.514 143.179 428.512L80.38 284.124C76.8965 276.122 80.5563 266.818 88.5536 263.333L331.144 157.707C339.141 154.221 348.44 157.883 351.923 165.885L414.723 310.273C418.206 318.275 414.547 327.579 406.549 331.065Z" fill="black"/>
</g>
<path d="M329.87 146.612L81.3424 254.815C74.8361 257.65 66.7981 253.988 62.8536 246.407L2.22298 142.177C-2.223 133.633 0.243974 123.569 7.57712 120.369L281.831 0.962985C289.151 -2.22424 298.206 2.82107 301.418 11.9081L336.322 127.34C339.182 135.41 336.376 143.778 329.87 146.612Z" fill="#F7F0E2"/>
<path d="M332.025 153.014L84.5549 260.769C78.0757 263.59 70.0648 259.929 66.1204 252.333L5.54397 148.064C1.098 139.519 3.55142 129.456 10.8439 126.282L283.919 7.39169C291.211 4.21803 300.239 9.2769 303.451 18.3503L338.409 133.755C341.269 141.811 338.491 150.179 332.011 153L332.025 153.014Z" fill="white" stroke="#F7F0E2" stroke-miterlimit="10"/>
<path d="M79.3498 250.258C78.9296 250.435 76.9642 249.865 75.6223 247.274L75.4867 247.017L14.8967 142.842C13.975 140.957 14.0157 139.194 14.3681 138.149C14.5172 137.702 14.7341 137.363 14.9238 137.281L289.178 17.8755C289.368 17.7942 289.761 17.8755 290.195 18.0654C291.198 18.513 292.513 19.6929 293.258 21.646L328.148 137.024L328.243 137.295C329.219 140.034 328.297 141.879 327.877 142.055L79.3498 250.258Z" fill="#F7F0E2"/>
<path d="M406.549 331.065L163.959 436.691C155.962 440.176 146.663 436.514 143.179 428.512L80.38 284.124C76.8965 276.122 80.5563 266.818 88.5536 263.333L331.144 157.707C339.141 154.221 348.44 157.883 351.923 165.885L414.723 310.273C418.206 318.275 414.547 327.579 406.549 331.065Z" fill="#F7F0E2"/>
<path d="M338.369 174.731L95.8357 280.349L133.29 366.455L375.823 260.837L338.369 174.731Z" fill="#FCDAD9"/>
<path d="M109.413 277.391L101.645 280.774C100.746 281.166 100.334 282.213 100.725 283.112L104.106 290.885C104.498 291.785 105.544 292.196 106.443 291.805L114.211 288.422C115.11 288.031 115.522 286.984 115.13 286.084L111.75 278.312C111.358 277.412 110.312 277 109.413 277.391Z" fill="#F7F0E2"/>
<path d="M116.25 293.143L108.507 296.515C107.601 296.91 107.186 297.965 107.581 298.871L110.951 306.619C111.345 307.525 112.399 307.94 113.305 307.546L121.049 304.174C121.955 303.779 122.369 302.725 121.975 301.818L118.605 294.07C118.211 293.164 117.157 292.749 116.25 293.143Z" fill="#F7F0E2"/>
<path d="M129.411 287.414L121.668 290.786C120.762 291.18 120.347 292.235 120.741 293.142L124.111 300.889C124.506 301.796 125.56 302.211 126.466 301.817L134.209 298.445C135.115 298.05 135.53 296.995 135.136 296.089L131.766 288.341C131.371 287.434 130.317 287.019 129.411 287.414Z" fill="#F7F0E2"/>
<path d="M134.109 301.526L141.864 298.148C142.771 297.753 143.824 298.167 144.219 299.075L147.594 306.835C147.989 307.743 147.575 308.796 146.668 309.191L138.912 312.569C138.005 312.964 136.952 312.549 136.557 311.642L133.182 303.882C132.787 302.974 133.201 301.921 134.109 301.526Z" fill="#F7F0E2"/>
<path d="M128.742 303.868L114.424 310.103C113.518 310.498 113.103 311.553 113.497 312.459L116.867 320.207C117.262 321.113 118.316 321.528 119.222 321.134L133.54 314.899C134.446 314.504 134.861 313.449 134.466 312.543L131.096 304.795C130.702 303.889 129.648 303.473 128.742 303.868Z" fill="#F7F0E2"/>
<path d="M155.058 292.409L147.315 295.781C146.409 296.176 145.994 297.231 146.388 298.137L149.758 305.885C150.153 306.791 151.207 307.206 152.113 306.812L159.856 303.44C160.762 303.045 161.177 301.99 160.782 301.084L157.412 293.336C157.018 292.43 155.964 292.015 155.058 292.409Z" fill="#F7F0E2"/>
<path d="M160.503 290.043L168.258 286.666C169.166 286.271 170.218 286.685 170.613 287.593L173.988 295.353C174.383 296.261 173.969 297.314 173.062 297.709L165.306 301.086C164.399 301.481 163.347 301.067 162.952 300.159L159.576 292.399C159.181 291.491 159.596 290.438 160.503 290.043Z" fill="#F7F0E2"/>
<path d="M181.447 280.914L173.704 284.286C172.797 284.681 172.383 285.736 172.777 286.642L176.147 294.39C176.541 295.296 177.596 295.712 178.502 295.317L186.245 291.945C187.151 291.55 187.566 290.496 187.171 289.589L183.801 281.841C183.407 280.935 182.353 280.52 181.447 280.914Z" fill="#F7F0E2"/>
<path d="M194.648 275.157L186.904 278.529C185.998 278.924 185.584 279.979 185.978 280.885L189.348 288.633C189.742 289.539 190.796 289.955 191.703 289.56L199.446 286.188C200.352 285.793 200.767 284.739 200.372 283.832L197.002 276.084C196.608 275.178 195.554 274.763 194.648 275.157Z" fill="#F7F0E2"/>
<path d="M200.098 272.79L207.854 269.413C208.761 269.018 209.813 269.432 210.208 270.34L213.584 278.1C213.978 279.008 213.564 280.061 212.657 280.456L204.902 283.833C203.994 284.229 202.942 283.814 202.547 282.906L199.172 275.146C198.777 274.238 199.191 273.185 200.098 272.79Z" fill="#F7F0E2"/>
<path d="M213.299 267.047L221.054 263.67C221.962 263.274 223.014 263.689 223.409 264.597L226.784 272.357C227.179 273.264 226.765 274.317 225.858 274.713L218.102 278.09C217.195 278.485 216.143 278.071 215.748 277.163L212.372 269.403C211.977 268.495 212.392 267.442 213.299 267.047Z" fill="#F7F0E2"/>
<path d="M226.487 261.295L234.243 257.918C235.15 257.523 236.202 257.937 236.597 258.845L239.973 266.605C240.367 267.513 239.953 268.566 239.046 268.961L231.29 272.339C230.383 272.734 229.331 272.319 228.936 271.411L225.56 263.651C225.166 262.744 225.58 261.691 226.487 261.295Z" fill="#F7F0E2"/>
<path d="M239.68 255.551L247.435 252.174C248.342 251.778 249.395 252.193 249.79 253.101L253.165 260.861C253.56 261.768 253.146 262.822 252.239 263.217L244.483 266.594C243.576 266.989 242.523 266.575 242.128 265.667L238.753 257.907C238.358 256.999 238.772 255.946 239.68 255.551Z" fill="#F7F0E2"/>
<path d="M252.88 249.808L260.636 246.43C261.543 246.035 262.596 246.449 262.99 247.357L266.366 255.117C266.761 256.025 266.347 257.078 265.439 257.473L257.684 260.851C256.777 261.246 255.724 260.831 255.329 259.924L251.954 252.164C251.559 251.256 251.973 250.203 252.88 249.808Z" fill="#F7F0E2"/>
<path d="M266.069 244.056L273.824 240.679C274.731 240.284 275.784 240.698 276.179 241.606L279.554 249.366C279.949 250.274 279.535 251.327 278.628 251.722L270.872 255.099C269.965 255.494 268.912 255.08 268.517 254.172L265.142 246.412C264.747 245.504 265.161 244.451 266.069 244.056Z" fill="#F7F0E2"/>
<path d="M279.275 238.312L287.03 234.934C287.937 234.539 288.99 234.953 289.385 235.861L292.76 243.621C293.155 244.529 292.741 245.582 291.834 245.977L284.078 249.355C283.171 249.75 282.118 249.335 281.723 248.428L278.348 240.668C277.953 239.76 278.367 238.707 279.275 238.312Z" fill="#F7F0E2"/>
<path d="M142.554 281.678L134.811 285.049C133.905 285.444 133.49 286.499 133.884 287.405L137.254 295.153C137.649 296.06 138.703 296.475 139.609 296.08L147.352 292.708C148.258 292.314 148.673 291.259 148.279 290.352L144.909 282.605C144.514 281.698 143.46 281.283 142.554 281.678Z" fill="#F7F0E2"/>
<path d="M155.715 275.948L147.972 279.32C147.066 279.715 146.651 280.769 147.045 281.676L150.415 289.424C150.809 290.33 151.864 290.745 152.77 290.351L160.513 286.979C161.419 286.584 161.834 285.529 161.439 284.623L158.069 276.875C157.675 275.969 156.621 275.554 155.715 275.948Z" fill="#F7F0E2"/>
<path d="M168.863 270.224L161.12 273.596C160.214 273.991 159.799 275.046 160.193 275.952L163.563 283.7C163.958 284.606 165.012 285.021 165.918 284.627L173.661 281.255C174.567 280.86 174.982 279.806 174.588 278.899L171.218 271.151C170.823 270.245 169.769 269.83 168.863 270.224Z" fill="#F7F0E2"/>
<path d="M182.024 264.495L174.28 267.867C173.374 268.261 172.96 269.316 173.354 270.223L176.724 277.97C177.118 278.877 178.172 279.292 179.079 278.897L186.822 275.526C187.728 275.131 188.143 274.076 187.748 273.17L184.378 265.422C183.984 264.515 182.93 264.1 182.024 264.495Z" fill="#F7F0E2"/>
<path d="M135.722 265.938L127.954 269.321C127.055 269.712 126.643 270.759 127.034 271.659L130.415 279.431C130.806 280.331 131.853 280.743 132.752 280.352L140.52 276.969C141.419 276.577 141.831 275.53 141.439 274.631L138.059 266.858C137.667 265.958 136.621 265.547 135.722 265.938Z" fill="#F7F0E2"/>
<path d="M148.877 260.196L141.109 263.579C140.21 263.971 139.798 265.017 140.19 265.917L143.57 273.69C143.962 274.589 145.008 275.001 145.907 274.61L153.675 271.227C154.574 270.835 154.986 269.789 154.595 268.889L151.214 261.116C150.822 260.217 149.776 259.805 148.877 260.196Z" fill="#F7F0E2"/>
<path d="M162.039 254.472L154.271 257.855C153.372 258.247 152.96 259.294 153.351 260.193L156.732 267.966C157.123 268.865 158.17 269.277 159.069 268.886L166.837 265.503C167.736 265.111 168.148 264.065 167.756 263.165L164.376 255.392C163.984 254.493 162.938 254.081 162.039 254.472Z" fill="#F7F0E2"/>
<path d="M175.2 248.743L167.432 252.126C166.532 252.517 166.121 253.564 166.512 254.464L169.893 262.236C170.284 263.136 171.33 263.548 172.23 263.156L179.998 259.774C180.897 259.382 181.309 258.335 180.917 257.436L177.536 249.663C177.145 248.763 176.099 248.351 175.2 248.743Z" fill="#F7F0E2"/>
<path d="M187.437 262.144L195.192 258.767C196.1 258.371 197.152 258.786 197.547 259.694L200.922 267.454C201.317 268.362 200.903 269.415 199.996 269.81L192.24 273.187C191.333 273.582 190.281 273.168 189.886 272.26L186.51 264.5C186.116 263.592 186.53 262.539 187.437 262.144Z" fill="#F7F0E2"/>
<path d="M208.341 253.043L200.598 256.415C199.692 256.809 199.277 257.864 199.671 258.771L203.041 266.518C203.435 267.425 204.49 267.84 205.396 267.445L213.139 264.073C214.045 263.679 214.46 262.624 214.065 261.717L210.695 253.97C210.301 253.063 209.247 252.648 208.341 253.043Z" fill="#F7F0E2"/>
<path d="M221.489 247.319L213.746 250.691C212.84 251.085 212.425 252.14 212.819 253.047L216.189 260.794C216.584 261.701 217.638 262.116 218.544 261.721L226.287 258.349C227.193 257.955 227.608 256.9 227.213 255.993L223.844 248.246C223.449 247.339 222.395 246.924 221.489 247.319Z" fill="#F7F0E2"/>
<path d="M226.889 244.954L234.644 241.577C235.551 241.182 236.604 241.596 236.999 242.504L240.374 250.264C240.769 251.172 240.355 252.225 239.448 252.62L231.692 255.997C230.785 256.392 229.732 255.978 229.337 255.07L225.962 247.31C225.567 246.402 225.981 245.349 226.889 244.954Z" fill="#F7F0E2"/>
<path d="M240.049 239.225L247.805 235.848C248.712 235.452 249.765 235.867 250.159 236.775L253.535 244.535C253.93 245.442 253.516 246.495 252.608 246.891L244.853 250.268C243.945 250.663 242.893 250.249 242.498 249.341L239.123 241.581C238.728 240.673 239.142 239.62 240.049 239.225Z" fill="#F7F0E2"/>
<path d="M260.953 230.124L253.21 233.496C252.304 233.89 251.889 234.945 252.283 235.851L255.653 243.599C256.048 244.506 257.102 244.921 258.008 244.526L265.751 241.154C266.657 240.76 267.072 239.705 266.678 238.798L263.308 231.051C262.913 230.144 261.859 229.729 260.953 230.124Z" fill="#F7F0E2"/>
<path d="M266.353 227.773L274.108 224.395C275.016 224 276.068 224.415 276.463 225.322L279.838 233.082C280.233 233.99 279.819 235.043 278.912 235.438L271.156 238.816C270.249 239.211 269.196 238.797 268.802 237.889L265.426 230.129C265.031 229.221 265.445 228.168 266.353 227.773Z" fill="#F7F0E2"/>
<path d="M287.256 218.671L279.513 222.043C278.607 222.438 278.192 223.493 278.587 224.399L281.957 232.147C282.351 233.054 283.405 233.469 284.311 233.074L292.055 229.702C292.961 229.307 293.375 228.253 292.981 227.346L289.611 219.599C289.217 218.692 288.163 218.277 287.256 218.671Z" fill="#F7F0E2"/>
<path d="M292.662 216.319L300.417 212.942C301.325 212.547 302.377 212.961 302.772 213.869L306.147 221.629C306.542 222.537 306.128 223.59 305.221 223.985L297.465 227.362C296.558 227.758 295.506 227.343 295.111 226.435L291.735 218.675C291.34 217.768 291.755 216.714 292.662 216.319Z" fill="#F7F0E2"/>
<path d="M307.493 209.863L315.248 206.486C316.155 206.091 317.208 206.505 317.603 207.413L320.978 215.173C321.373 216.081 320.959 217.134 320.052 217.529L312.296 220.906C311.389 221.301 310.336 220.887 309.941 219.979L306.566 212.219C306.171 211.311 306.585 210.258 307.493 209.863Z" fill="#F7F0E2"/>
<path d="M320.648 204.121L328.403 200.744C329.311 200.349 330.363 200.763 330.758 201.671L334.133 209.431C334.528 210.339 334.114 211.392 333.207 211.787L325.451 215.164C324.544 215.559 323.492 215.145 323.097 214.237L319.721 206.477C319.326 205.569 319.741 204.516 320.648 204.121Z" fill="#F7F0E2"/>
<path d="M341.552 195.02L333.809 198.392C332.903 198.786 332.488 199.841 332.882 200.748L336.252 208.495C336.647 209.402 337.701 209.817 338.607 209.423L346.35 206.051C347.256 205.656 347.671 204.601 347.276 203.695L343.906 195.947C343.512 195.04 342.458 194.625 341.552 195.02Z" fill="#F7F0E2"/>
<path d="M313.411 223.45L321.167 220.072C322.074 219.677 323.127 220.092 323.521 220.999L326.897 228.759C327.292 229.667 326.878 230.72 325.97 231.115L318.215 234.493C317.308 234.888 316.255 234.473 315.86 233.566L312.485 225.806C312.09 224.898 312.504 223.845 313.411 223.45Z" fill="#F7F0E2"/>
<path d="M326.572 217.72L334.327 214.343C335.235 213.948 336.287 214.362 336.682 215.27L340.058 223.03C340.452 223.938 340.038 224.991 339.131 225.386L331.375 228.763C330.468 229.158 329.416 228.744 329.021 227.836L325.645 220.076C325.251 219.168 325.665 218.115 326.572 217.72Z" fill="#F7F0E2"/>
<path d="M339.715 211.997L347.47 208.62C348.378 208.225 349.43 208.639 349.825 209.547L353.2 217.307C353.595 218.215 353.181 219.268 352.274 219.663L344.518 223.041C343.611 223.436 342.559 223.021 342.164 222.113L338.788 214.353C338.393 213.446 338.808 212.393 339.715 211.997Z" fill="#F7F0E2"/>
<path d="M327.072 233.659L319.329 237.031C318.423 237.425 318.008 238.48 318.402 239.387L321.772 247.134C322.167 248.041 323.221 248.456 324.127 248.061L331.87 244.689C332.776 244.295 333.191 243.24 332.796 242.334L329.426 234.586C329.032 233.679 327.978 233.264 327.072 233.659Z" fill="#F7F0E2"/>
<path d="M332.477 231.32L340.233 227.943C341.14 227.548 342.192 227.962 342.587 228.87L345.963 236.63C346.358 237.538 345.944 238.591 345.036 238.986L337.281 242.363C336.373 242.759 335.321 242.344 334.926 241.436L331.551 233.676C331.156 232.768 331.57 231.715 332.477 231.32Z" fill="#F7F0E2"/>
<path d="M353.375 222.207L345.632 225.579C344.726 225.973 344.311 227.028 344.706 227.935L348.076 235.682C348.47 236.589 349.524 237.004 350.43 236.609L358.173 233.237C359.08 232.843 359.494 231.788 359.1 230.881L355.73 223.134C355.336 222.227 354.281 221.812 353.375 222.207Z" fill="#F7F0E2"/>
<path d="M338.896 260.845L331.153 264.217C330.246 264.612 329.832 265.667 330.226 266.573L333.596 274.321C333.99 275.228 335.045 275.643 335.951 275.248L343.694 271.876C344.6 271.482 345.015 270.427 344.62 269.52L341.25 261.773C340.856 260.866 339.802 260.451 338.896 260.845Z" fill="#F7F0E2"/>
<path d="M352.044 255.121L344.301 258.493C343.395 258.888 342.98 259.943 343.374 260.849L346.744 268.597C347.139 269.504 348.193 269.919 349.099 269.524L356.842 266.152C357.748 265.758 358.163 264.703 357.768 263.796L354.398 256.049C354.004 255.142 352.95 254.727 352.044 255.121Z" fill="#F7F0E2"/>
<path d="M357.462 252.764L365.217 249.387C366.124 248.992 367.177 249.406 367.572 250.314L370.947 258.074C371.342 258.982 370.928 260.035 370.021 260.43L362.265 263.807C361.358 264.202 360.305 263.788 359.91 262.88L356.535 255.12C356.14 254.212 356.554 253.159 357.462 252.764Z" fill="#F7F0E2"/>
<path d="M194.341 240.405L186.573 243.788C185.674 244.179 185.263 245.226 185.654 246.126L189.035 253.898C189.426 254.798 190.472 255.21 191.372 254.818L199.139 251.435C200.039 251.044 200.45 249.997 200.059 249.097L196.678 241.325C196.287 240.425 195.241 240.013 194.341 240.405Z" fill="#F7F0E2"/>
<path d="M207.888 234.511L200.12 237.894C199.221 238.286 198.809 239.333 199.201 240.232L202.581 248.005C202.973 248.905 204.019 249.316 204.918 248.925L212.686 245.542C213.585 245.151 213.997 244.104 213.606 243.204L210.225 235.432C209.833 234.532 208.787 234.12 207.888 234.511Z" fill="#F7F0E2"/>
<path d="M221.421 228.604L213.653 231.987C212.754 232.379 212.342 233.426 212.734 234.325L216.115 242.098C216.506 242.998 217.552 243.409 218.451 243.018L226.219 239.635C227.118 239.244 227.53 238.197 227.139 237.297L223.758 229.525C223.367 228.625 222.32 228.213 221.421 228.604Z" fill="#F7F0E2"/>
<path d="M234.973 222.724L227.206 226.106C226.306 226.498 225.895 227.545 226.286 228.444L229.667 236.217C230.058 237.117 231.104 237.528 232.004 237.137L239.772 233.754C240.671 233.363 241.082 232.316 240.691 231.416L237.31 223.644C236.919 222.744 235.873 222.332 234.973 222.724Z" fill="#F7F0E2"/>
<path d="M254.115 214.372L246.347 217.754C245.448 218.146 245.036 219.193 245.428 220.093L248.809 227.865C249.2 228.765 250.246 229.177 251.145 228.785L258.913 225.402C259.813 225.011 260.224 223.964 259.833 223.064L256.452 215.292C256.061 214.392 255.015 213.98 254.115 214.372Z" fill="#F7F0E2"/>
<path d="M267.264 208.661L259.496 212.044C258.596 212.436 258.185 213.483 258.576 214.382L261.957 222.155C262.348 223.054 263.394 223.466 264.294 223.075L272.062 219.692C272.961 219.3 273.372 218.254 272.981 217.354L269.6 209.581C269.209 208.682 268.163 208.27 267.264 208.661Z" fill="#F7F0E2"/>
<path d="M280.432 202.92L272.665 206.302C271.765 206.694 271.354 207.741 271.745 208.64L275.126 216.413C275.517 217.313 276.563 217.725 277.463 217.333L285.231 213.95C286.13 213.559 286.541 212.512 286.15 211.612L282.769 203.84C282.378 202.94 281.332 202.528 280.432 202.92Z" fill="#F7F0E2"/>
<path d="M293.581 197.196L285.813 200.578C284.914 200.97 284.502 202.017 284.893 202.916L288.274 210.689C288.665 211.589 289.712 212.001 290.611 211.609L298.379 208.226C299.278 207.835 299.69 206.788 299.298 205.888L295.917 198.116C295.526 197.216 294.48 196.804 293.581 197.196Z" fill="#F7F0E2"/>
<path d="M308.398 190.739L300.63 194.122C299.731 194.514 299.319 195.56 299.711 196.46L303.092 204.233C303.483 205.132 304.529 205.544 305.428 205.153L313.196 201.77C314.096 201.378 314.507 200.331 314.116 199.432L310.735 191.659C310.344 190.76 309.297 190.348 308.398 190.739Z" fill="#F7F0E2"/>
<path d="M321.572 185.023L313.804 188.406C312.905 188.798 312.494 189.845 312.885 190.744L316.266 198.517C316.657 199.416 317.703 199.828 318.602 199.437L326.37 196.054C327.27 195.662 327.681 194.616 327.29 193.716L323.909 185.943C323.518 185.044 322.472 184.632 321.572 185.023Z" fill="#F7F0E2"/>
<path d="M334.715 179.274L326.947 182.656C326.048 183.048 325.636 184.095 326.028 184.994L329.409 192.767C329.8 193.667 330.846 194.079 331.745 193.687L339.513 190.304C340.412 189.913 340.824 188.866 340.433 187.966L337.052 180.194C336.661 179.294 335.614 178.882 334.715 179.274Z" fill="#F7F0E2"/>
<path d="M151.611 310.07L143.868 313.442C142.962 313.837 142.547 314.892 142.941 315.798L146.311 323.546C146.705 324.452 147.76 324.868 148.666 324.473L156.409 321.101C157.315 320.706 157.73 319.652 157.335 318.745L153.965 310.997C153.571 310.091 152.517 309.676 151.611 310.07Z" fill="#F7F0E2"/>
<path d="M120.326 323.699L138.46 315.802C139.367 315.407 140.42 315.821 140.815 316.729L144.19 324.489C144.585 325.397 144.171 326.45 143.263 326.845L125.13 334.742C124.223 335.137 123.17 334.722 122.775 333.815L119.4 326.055C119.005 325.147 119.419 324.094 120.326 323.699Z" fill="#F7F0E2"/>
<path d="M164.811 304.314L157.068 307.685C156.162 308.08 155.747 309.135 156.142 310.041L159.512 317.789C159.906 318.696 160.96 319.111 161.866 318.716L169.609 315.344C170.516 314.95 170.93 313.895 170.536 312.988L167.166 305.241C166.772 304.334 165.717 303.919 164.811 304.314Z" fill="#F7F0E2"/>
<path d="M178.005 298.588L170.262 301.96C169.356 302.354 168.941 303.409 169.335 304.316L172.705 312.063C173.1 312.97 174.154 313.385 175.06 312.991L182.803 309.619C183.709 309.224 184.124 308.169 183.73 307.263L180.36 299.515C179.965 298.608 178.911 298.193 178.005 298.588Z" fill="#F7F0E2"/>
<path d="M191.206 292.845L183.463 296.217C182.557 296.611 182.142 297.666 182.536 298.573L185.906 306.32C186.3 307.227 187.355 307.642 188.261 307.247L196.004 303.875C196.91 303.481 197.325 302.426 196.93 301.519L193.56 293.772C193.166 292.865 192.112 292.45 191.206 292.845Z" fill="#F7F0E2"/>
<path d="M204.406 287.088L196.663 290.46C195.757 290.854 195.342 291.909 195.737 292.816L199.107 300.563C199.501 301.47 200.555 301.885 201.461 301.49L209.204 298.118C210.11 297.724 210.525 296.669 210.131 295.762L206.761 288.015C206.367 287.108 205.312 286.693 204.406 287.088Z" fill="#F7F0E2"/>
<path d="M217.595 281.336L209.852 284.708C208.945 285.103 208.531 286.158 208.925 287.064L212.295 294.812C212.689 295.718 213.744 296.133 214.65 295.739L222.393 292.367C223.299 291.972 223.714 290.917 223.319 290.011L219.949 282.263C219.555 281.357 218.501 280.942 217.595 281.336Z" fill="#F7F0E2"/>
<path d="M223.058 278.964L230.813 275.586C231.721 275.191 232.773 275.606 233.168 276.513L236.543 284.273C236.938 285.181 236.524 286.234 235.617 286.629L227.861 290.007C226.954 290.402 225.902 289.987 225.507 289.08L222.131 281.32C221.736 280.412 222.151 279.359 223.058 278.964Z" fill="#F7F0E2"/>
<path d="M244.002 269.848L236.259 273.22C235.352 273.615 234.938 274.67 235.332 275.576L238.702 283.324C239.096 284.23 240.15 284.646 241.057 284.251L248.8 280.879C249.706 280.484 250.121 279.43 249.726 278.523L246.356 270.776C245.962 269.869 244.908 269.454 244.002 269.848Z" fill="#F7F0E2"/>
<path d="M249.447 267.469L257.202 264.091C258.11 263.696 259.162 264.111 259.557 265.019L262.932 272.779C263.327 273.686 262.913 274.739 262.006 275.134L254.25 278.512C253.343 278.907 252.29 278.493 251.896 277.585L248.52 269.825C248.125 268.917 248.539 267.864 249.447 267.469Z" fill="#F7F0E2"/>
<path d="M270.382 258.352L262.639 261.724C261.733 262.119 261.318 263.174 261.713 264.08L265.083 271.828C265.477 272.735 266.531 273.15 267.437 272.755L275.18 269.383C276.086 268.989 276.501 267.934 276.107 267.027L272.737 259.28C272.342 258.373 271.288 257.958 270.382 258.352Z" fill="#F7F0E2"/>
<path d="M275.828 255.973L283.583 252.595C284.49 252.2 285.543 252.615 285.938 253.523L289.313 261.283C289.708 262.19 289.294 263.243 288.387 263.639L280.631 267.016C279.724 267.411 278.671 266.997 278.276 266.089L274.901 258.329C274.506 257.421 274.92 256.368 275.828 255.973Z" fill="#F7F0E2"/>
<path d="M163.059 321.251L155.316 324.622C154.41 325.017 153.995 326.072 154.39 326.978L157.76 334.726C158.154 335.633 159.208 336.048 160.114 335.653L167.857 332.281C168.764 331.887 169.178 330.832 168.784 329.925L165.414 322.178C165.02 321.271 163.966 320.856 163.059 321.251Z" fill="#F7F0E2"/>
<path d="M149.889 326.992L126.249 337.287C125.343 337.681 124.928 338.736 125.323 339.643L128.693 347.39C129.087 348.297 130.141 348.712 131.047 348.317L154.687 338.023C155.593 337.628 156.008 336.573 155.613 335.667L152.243 327.919C151.849 327.013 150.795 326.597 149.889 326.992Z" fill="#F7F0E2"/>
<path d="M176.241 315.503L168.498 318.875C167.592 319.27 167.177 320.325 167.571 321.231L170.941 328.979C171.336 329.885 172.39 330.3 173.296 329.906L181.039 326.534C181.945 326.139 182.36 325.084 181.965 324.178L178.595 316.43C178.201 315.524 177.147 315.109 176.241 315.503Z" fill="#F7F0E2"/>
<path d="M178.81 330.559L167.251 335.593C166.345 335.987 165.93 337.042 166.325 337.949L169.695 345.696C170.089 346.603 171.143 347.018 172.049 346.623L183.608 341.59C184.514 341.195 184.929 340.14 184.534 339.234L181.164 331.486C180.77 330.58 179.716 330.165 178.81 330.559Z" fill="#F7F0E2"/>
<path d="M184.21 328.212L257.204 296.424C258.111 296.029 259.163 296.444 259.558 297.351L262.934 305.111C263.328 306.019 262.914 307.072 262.007 307.467L189.013 339.255C188.106 339.65 187.054 339.235 186.659 338.328L183.283 330.568C182.888 329.66 183.303 328.607 184.21 328.212Z" fill="#F7F0E2"/>
<path d="M189.422 309.77L181.679 313.142C180.773 313.536 180.358 314.591 180.752 315.498L184.122 323.245C184.517 324.152 185.571 324.567 186.477 324.172L194.22 320.8C195.126 320.406 195.541 319.351 195.147 318.444L191.777 310.697C191.382 309.79 190.328 309.375 189.422 309.77Z" fill="#F7F0E2"/>
<path d="M202.59 304.036L194.847 307.408C193.941 307.802 193.526 308.857 193.92 309.764L197.29 317.511C197.684 318.418 198.739 318.833 199.645 318.438L207.388 315.067C208.294 314.672 208.709 313.617 208.314 312.711L204.944 304.963C204.55 304.056 203.496 303.641 202.59 304.036Z" fill="#F7F0E2"/>
<path d="M215.757 298.302L208.014 301.674C207.108 302.069 206.693 303.124 207.088 304.03L210.458 311.778C210.852 312.684 211.906 313.099 212.812 312.705L220.555 309.333C221.462 308.938 221.876 307.884 221.482 306.977L218.112 299.229C217.718 298.323 216.664 297.908 215.757 298.302Z" fill="#F7F0E2"/>
<path d="M228.939 292.555L221.196 295.927C220.289 296.322 219.875 297.376 220.269 298.283L223.639 306.031C224.033 306.937 225.088 307.352 225.994 306.958L233.737 303.586C234.643 303.191 235.058 302.136 234.663 301.23L231.293 293.482C230.899 292.576 229.845 292.161 228.939 292.555Z" fill="#F7F0E2"/>
<path d="M242.12 286.821L234.377 290.193C233.471 290.588 233.056 291.643 233.45 292.549L236.82 300.297C237.214 301.204 238.269 301.619 239.175 301.224L246.918 297.852C247.824 297.458 248.239 296.403 247.844 295.496L244.474 287.749C244.08 286.842 243.026 286.427 242.12 286.821Z" fill="#F7F0E2"/>
<path d="M255.287 281.088L247.544 284.46C246.638 284.854 246.223 285.909 246.618 286.816L249.988 294.563C250.382 295.47 251.436 295.885 252.342 295.49L260.086 292.118C260.992 291.724 261.406 290.669 261.012 289.762L257.642 282.015C257.248 281.108 256.194 280.693 255.287 281.088Z" fill="#F7F0E2"/>
<path d="M268.469 275.354L260.726 278.726C259.82 279.121 259.405 280.175 259.799 281.082L263.169 288.83C263.564 289.736 264.618 290.151 265.524 289.757L273.267 286.385C274.173 285.99 274.588 284.935 274.193 284.029L270.823 276.281C270.429 275.375 269.375 274.96 268.469 275.354Z" fill="#F7F0E2"/>
<path d="M273.576 289.303L262.638 294.065C261.732 294.46 261.317 295.515 261.712 296.421L265.082 304.169C265.476 305.076 266.53 305.491 267.436 305.096L278.374 300.333C279.28 299.939 279.695 298.884 279.3 297.977L275.93 290.23C275.536 289.323 274.482 288.908 273.576 289.303Z" fill="#F7F0E2"/>
<path d="M278.977 286.941L289.927 282.173C290.834 281.778 291.886 282.192 292.281 283.1L295.657 290.86C296.052 291.768 295.637 292.821 294.73 293.216L283.78 297.984C282.873 298.38 281.821 297.965 281.426 297.057L278.05 289.297C277.656 288.39 278.07 287.337 278.977 286.941Z" fill="#F7F0E2"/>
<path d="M161.835 337.951L150.898 342.714C149.992 343.108 149.577 344.163 149.971 345.07L153.341 352.817C153.735 353.724 154.79 354.139 155.696 353.744L166.633 348.981C167.539 348.587 167.954 347.532 167.56 346.625L164.19 338.878C163.795 337.971 162.741 337.556 161.835 337.951Z" fill="#F7F0E2"/>
<path d="M145.49 345.075L132.155 350.883C131.248 351.277 130.834 352.332 131.228 353.239L134.598 360.986C134.992 361.893 136.046 362.308 136.953 361.913L150.289 356.106C151.195 355.711 151.609 354.657 151.215 353.75L147.845 346.002C147.451 345.096 146.397 344.681 145.49 345.075Z" fill="#F7F0E2"/>
<path d="M295.308 279.83L306.257 275.062C307.165 274.667 308.217 275.081 308.612 275.989L311.987 283.749C312.382 284.657 311.968 285.71 311.061 286.105L300.111 290.873C299.204 291.268 298.151 290.854 297.756 289.946L294.381 282.186C293.986 281.278 294.4 280.225 295.308 279.83Z" fill="#F7F0E2"/>
<path d="M324.047 267.312L311.643 272.714C310.737 273.109 310.322 274.163 310.716 275.07L314.086 282.818C314.481 283.724 315.535 284.139 316.441 283.745L328.845 278.343C329.751 277.948 330.166 276.894 329.771 275.987L326.401 268.24C326.007 267.333 324.953 266.918 324.047 267.312Z" fill="#F7F0E2"/>
<path d="M281.637 269.607L273.894 272.979C272.987 273.373 272.573 274.428 272.967 275.335L276.337 283.082C276.731 283.989 277.786 284.404 278.692 284.01L286.435 280.638C287.341 280.243 287.756 279.188 287.361 278.282L283.991 270.534C283.597 269.627 282.543 269.212 281.637 269.607Z" fill="#F7F0E2"/>
<path d="M346.125 241.535L338.382 244.907C337.476 245.301 337.061 246.356 337.456 247.263L340.826 255.01C341.22 255.917 342.274 256.332 343.18 255.938L350.923 252.566C351.829 252.171 352.244 251.116 351.85 250.21L348.48 242.462C348.086 241.555 347.031 241.14 346.125 241.535Z" fill="#F7F0E2"/>
<path d="M287.261 267.17L318.159 253.715C319.066 253.32 320.119 253.734 320.514 254.642L323.889 262.402C324.284 263.31 323.87 264.363 322.963 264.758L292.065 278.213C291.158 278.608 290.105 278.194 289.71 277.286L286.335 269.526C285.94 268.618 286.354 267.565 287.261 267.17Z" fill="#F7F0E2"/>
<path d="M306.366 226.537L292.472 232.586C291.591 232.966 291.184 233.997 291.578 234.865L295.766 244.508L296.078 245.227C296.471 246.135 296.051 247.18 295.156 247.573L294.288 247.953L289.205 250.163C288.297 250.557 287.891 251.601 288.284 252.51L291.659 260.268C292.052 261.176 293.109 261.583 294.004 261.19L317.047 251.153C317.955 250.76 318.362 249.702 317.969 248.807L308.657 227.405C308.277 226.524 307.247 226.117 306.379 226.51L306.366 226.537Z" fill="#F7F0E2"/>
<path d="M152.83 233.251L152.722 233.007C152.478 232.451 152.193 231.949 151.868 231.46L107.53 250.76C107.666 251.33 107.842 251.886 108.086 252.442L108.194 252.686C108.452 253.283 108.777 253.852 109.13 254.368L153.427 235.082C153.291 234.458 153.102 233.847 152.83 233.251Z" fill="#FCDAD9"/>
<path d="M265.078 184.846L265.186 185.09C265.349 185.469 265.539 185.822 265.742 186.175L310.69 166.604C310.581 166.224 310.446 165.831 310.283 165.465L310.175 165.22C309.836 164.447 309.402 163.742 308.9 163.091L264.386 182.472C264.522 183.272 264.739 184.072 265.078 184.846Z" fill="#FCDAD9"/>
<path d="M295.198 306.918L222.415 338.613C216.279 341.286 213.469 348.43 216.14 354.57L228.241 382.389C230.912 388.529 238.051 391.34 244.188 388.668L316.97 356.973C323.107 354.3 325.916 347.156 323.246 341.016L311.145 313.197C308.474 307.057 301.334 304.246 295.198 306.918Z" fill="#FCDAD9"/>
<path opacity="0.5" d="M150.092 78.4329L153.318 218.047L93.4196 244.128L90.1936 104.514L150.092 78.4329Z" fill="white"/>
<path opacity="0.5" d="M186.189 62.7137L189.415 202.328L170.926 210.384L167.714 70.7564L186.189 62.7137Z" fill="white"/>
<path opacity="0.5" d="M276.952 23.1921L280.178 162.82L220.279 188.901L217.053 49.2731L276.952 23.1921Z" fill="white"/>
<path opacity="0.5" d="M294.858 27.9255L315.068 94.7895L316.274 147.101L297.799 155.143L294.858 27.9255Z" fill="white"/>
</g>
<defs>
<clipPath id="clip0_1_12">
<rect width="417" height="440" fill="white"/>
</clipPath>
</defs>
</svg>
